<svg xmlns="http://www.w3.org/2000/svg" xmlns:xlink="http://www.w3.org/1999/xlink" width="1366" zoomAndPan="magnify" viewBox="0 0 1024.5 576" height="768" preserveAspectRatio="xMidYMid meet" version="1.0"><defs><g/><clipPath id="be0237b4da"><path d="M 435 220 L 705 220 L 705 575.859375 L 435 575.859375 Z M 435 220 " clip-rule="nonzero"/></clipPath><clipPath id="0a99000f9c"><rect x="0" width="270" y="0" height="356"/></clipPath><clipPath id="3d7d4b0e91"><rect x="0" width="175" y="0" height="40"/></clipPath><clipPath id="c25554d09d"><path d="M 237 0.140625 L 611 0.140625 L 611 575.859375 L 237 575.859375 Z M 237 0.140625 " clip-rule="nonzero"/></clipPath><clipPath id="3e73754d0b"><rect x="0" width="374" y="0" height="576"/></clipPath></defs><g clip-path="url(#be0237b4da)"><g transform="matrix(1, 0, 0, 1, 435, 220)"><g clip-path="url(#0a99000f9c)"><g fill="#ffffff" fill-opacity="1"><g transform="translate(0.853819, 338.480444)"><g><path d="M 80.96875 0 L 44.53125 0 L 44.53125 -236.15625 L 80.96875 -236.15625 L 80.96875 -115.375 L 128.875 -157.890625 L 215.578125 -236.15625 L 266.1875 -236.15625 L 155.875 -139.328125 L 265.515625 0 L 218.625 0 L 129.21875 -115.375 L 80.96875 -72.875 Z M 80.96875 0 "/></g></g></g></g></g></g><g transform="matrix(1, 0, 0, 1, 272, 530)"><g clip-path="url(#3d7d4b0e91)"><g fill="#ffffff" fill-opacity="1"><g transform="translate(2.838722, 31.585047)"><g><path d="M 4.109375 -21.75 L 19.546875 -21.75 L 19.546875 -18.515625 L 7.453125 -18.515625 L 7.453125 -12.765625 L 17.84375 -12.765625 L 17.84375 -9.546875 L 7.453125 -9.546875 L 7.453125 -3.234375 L 19.546875 -3.234375 L 19.546875 0 L 4.109375 0 Z M 4.109375 -21.75 "/></g></g></g><g fill="#ffffff" fill-opacity="1"><g transform="translate(25.777048, 31.585047)"><g><path d="M 4.75 -6.625 C 5.75 -5.375 6.796875 -4.40625 7.890625 -3.71875 C 8.992188 -3.039062 10.375 -2.703125 12.03125 -2.703125 C 12.875 -2.703125 13.6875 -2.820312 14.46875 -3.0625 C 15.257812 -3.300781 15.90625 -3.648438 16.40625 -4.109375 C 16.90625 -4.578125 17.15625 -5.164062 17.15625 -5.875 C 17.15625 -6.90625 16.632812 -7.664062 15.59375 -8.15625 C 14.5625 -8.644531 13.113281 -9.035156 11.25 -9.328125 C 8.90625 -9.710938 7.046875 -10.40625 5.671875 -11.40625 C 4.296875 -12.414062 3.609375 -13.894531 3.609375 -15.84375 C 3.609375 -17.132812 3.988281 -18.242188 4.75 -19.171875 C 5.519531 -20.109375 6.535156 -20.820312 7.796875 -21.3125 C 9.066406 -21.8125 10.457031 -22.0625 11.96875 -22.0625 C 13.875 -22.0625 15.523438 -21.726562 16.921875 -21.0625 C 18.316406 -20.40625 19.410156 -19.46875 20.203125 -18.25 L 17.90625 -15.84375 C 17.238281 -16.800781 16.398438 -17.570312 15.390625 -18.15625 C 14.390625 -18.75 13.21875 -19.046875 11.875 -19.046875 C 10.53125 -19.046875 9.394531 -18.78125 8.46875 -18.25 C 7.539062 -17.726562 7.078125 -16.988281 7.078125 -16.03125 C 7.078125 -14.9375 7.5625 -14.148438 8.53125 -13.671875 C 9.507812 -13.191406 10.8125 -12.820312 12.4375 -12.5625 C 13.488281 -12.394531 14.5 -12.164062 15.46875 -11.875 C 16.445312 -11.582031 17.320312 -11.203125 18.09375 -10.734375 C 18.875 -10.265625 19.492188 -9.691406 19.953125 -9.015625 C 20.410156 -8.347656 20.640625 -7.53125 20.640625 -6.5625 C 20.640625 -5.164062 20.28125 -3.957031 19.5625 -2.9375 C 18.84375 -1.914062 17.820312 -1.117188 16.5 -0.546875 C 15.175781 0.0234375 13.613281 0.3125 11.8125 0.3125 C 9.90625 0.3125 8.171875 -0.015625 6.609375 -0.671875 C 5.054688 -1.335938 3.691406 -2.421875 2.515625 -3.921875 Z M 4.75 -6.625 "/></g></g></g><g fill="#ffffff" fill-opacity="1"><g transform="translate(49.026177, 31.585047)"><g><path d="M 8.859375 0 L 8.859375 -18.515625 L 1.890625 -18.515625 L 1.890625 -21.75 L 19.359375 -21.75 L 19.359375 -18.515625 L 12.21875 -18.515625 L 12.21875 0 Z M 8.859375 0 "/></g></g></g><g fill="#ffffff" fill-opacity="1"><g transform="translate(70.286075, 31.585047)"><g><path d="M 5.53125 0.34375 C 4.664062 0.34375 4.019531 0.128906 3.59375 -0.296875 C 3.164062 -0.722656 2.953125 -1.285156 2.953125 -1.984375 C 2.953125 -2.585938 3.164062 -3.125 3.59375 -3.59375 C 4.019531 -4.070312 4.664062 -4.3125 5.53125 -4.3125 C 6.40625 -4.3125 7.050781 -4.097656 7.46875 -3.671875 C 7.894531 -3.253906 8.109375 -2.691406 8.109375 -1.984375 C 8.109375 -1.410156 7.894531 -0.878906 7.46875 -0.390625 C 7.050781 0.0976562 6.40625 0.34375 5.53125 0.34375 Z M 5.53125 0.34375 "/></g></g></g><g fill="#ffffff" fill-opacity="1"><g transform="translate(81.351183, 31.585047)"><g/></g></g><g fill="#ffffff" fill-opacity="1"><g transform="translate(92.602756, 31.585047)"><g><path d="M 17.90625 -3.234375 L 17.90625 0 L 3.640625 0 L 2.609375 -2.546875 L 9.578125 -9.640625 C 10.253906 -10.335938 10.914062 -11.023438 11.5625 -11.703125 C 12.207031 -12.390625 12.734375 -13.078125 13.140625 -13.765625 C 13.554688 -14.453125 13.765625 -15.132812 13.765625 -15.8125 C 13.765625 -16.832031 13.441406 -17.609375 12.796875 -18.140625 C 12.160156 -18.679688 11.28125 -18.953125 10.15625 -18.953125 C 9.25 -18.953125 8.289062 -18.628906 7.28125 -17.984375 C 6.28125 -17.347656 5.46875 -16.296875 4.84375 -14.828125 L 2.328125 -16.46875 C 3.035156 -18.25 4.117188 -19.625 5.578125 -20.59375 C 7.035156 -21.570312 8.695312 -22.0625 10.5625 -22.0625 C 11.875 -22.0625 13.023438 -21.816406 14.015625 -21.328125 C 15.015625 -20.847656 15.796875 -20.160156 16.359375 -19.265625 C 16.929688 -18.378906 17.21875 -17.332031 17.21875 -16.125 C 17.21875 -15.050781 16.941406 -14.007812 16.390625 -13 C 15.835938 -12 15.144531 -11.023438 14.3125 -10.078125 C 13.488281 -9.140625 12.644531 -8.210938 11.78125 -7.296875 L 7.734375 -3.234375 Z M 17.90625 -3.234375 "/></g></g></g><g fill="#ffffff" fill-opacity="1"><g transform="translate(112.464003, 31.585047)"><g><path d="M 10.84375 0.3125 C 8.9375 0.3125 7.335938 -0.164062 6.046875 -1.125 C 4.753906 -2.09375 3.773438 -3.414062 3.109375 -5.09375 C 2.441406 -6.769531 2.109375 -8.695312 2.109375 -10.875 C 2.109375 -13.050781 2.441406 -14.976562 3.109375 -16.65625 C 3.773438 -18.332031 4.753906 -19.648438 6.046875 -20.609375 C 7.335938 -21.578125 8.9375 -22.0625 10.84375 -22.0625 C 12.726562 -22.0625 14.304688 -21.578125 15.578125 -20.609375 C 16.859375 -19.648438 17.828125 -18.332031 18.484375 -16.65625 C 19.148438 -14.976562 19.484375 -13.050781 19.484375 -10.875 C 19.484375 -8.695312 19.148438 -6.769531 18.484375 -5.09375 C 17.828125 -3.414062 16.859375 -2.09375 15.578125 -1.125 C 14.304688 -0.164062 12.726562 0.3125 10.84375 0.3125 Z M 10.84375 -2.734375 C 12.519531 -2.734375 13.832031 -3.4375 14.78125 -4.84375 C 15.738281 -6.257812 16.21875 -8.269531 16.21875 -10.875 C 16.21875 -13.488281 15.738281 -15.5 14.78125 -16.90625 C 13.832031 -18.3125 12.519531 -19.015625 10.84375 -19.015625 C 9.101562 -19.015625 7.75 -18.3125 6.78125 -16.90625 C 5.820312 -15.5 5.34375 -13.488281 5.34375 -10.875 C 5.34375 -8.269531 5.820312 -6.257812 6.78125 -4.84375 C 7.75 -3.4375 9.101562 -2.734375 10.84375 -2.734375 Z M 10.84375 -2.734375 "/></g></g></g><g fill="#ffffff" fill-opacity="1"><g transform="translate(134.034743, 31.585047)"><g><path d="M 17.90625 -3.234375 L 17.90625 0 L 3.640625 0 L 2.609375 -2.546875 L 9.578125 -9.640625 C 10.253906 -10.335938 10.914062 -11.023438 11.5625 -11.703125 C 12.207031 -12.390625 12.734375 -13.078125 13.140625 -13.765625 C 13.554688 -14.453125 13.765625 -15.132812 13.765625 -15.8125 C 13.765625 -16.832031 13.441406 -17.609375 12.796875 -18.140625 C 12.160156 -18.679688 11.28125 -18.953125 10.15625 -18.953125 C 9.25 -18.953125 8.289062 -18.628906 7.28125 -17.984375 C 6.28125 -17.347656 5.46875 -16.296875 4.84375 -14.828125 L 2.328125 -16.46875 C 3.035156 -18.25 4.117188 -19.625 5.578125 -20.59375 C 7.035156 -21.570312 8.695312 -22.0625 10.5625 -22.0625 C 11.875 -22.0625 13.023438 -21.816406 14.015625 -21.328125 C 15.015625 -20.847656 15.796875 -20.160156 16.359375 -19.265625 C 16.929688 -18.378906 17.21875 -17.332031 17.21875 -16.125 C 17.21875 -15.050781 16.941406 -14.007812 16.390625 -13 C 15.835938 -12 15.144531 -11.023438 14.3125 -10.078125 C 13.488281 -9.140625 12.644531 -8.210938 11.78125 -7.296875 L 7.734375 -3.234375 Z M 17.90625 -3.234375 "/></g></g></g><g fill="#ffffff" fill-opacity="1"><g transform="translate(153.895989, 31.585047)"><g><path d="M 9.359375 0.21875 C 7.785156 0.21875 6.378906 -0.125 5.140625 -0.8125 C 3.910156 -1.507812 2.890625 -2.378906 2.078125 -3.421875 L 3.921875 -5.71875 C 4.742188 -4.863281 5.59375 -4.171875 6.46875 -3.640625 C 7.351562 -3.117188 8.316406 -2.859375 9.359375 -2.859375 C 10.328125 -2.859375 11.191406 -3.046875 11.953125 -3.421875 C 12.722656 -3.796875 13.328125 -4.304688 13.765625 -4.953125 C 14.203125 -5.609375 14.421875 -6.359375 14.421875 -7.203125 C 14.421875 -8.035156 14.203125 -8.769531 13.765625 -9.40625 C 13.328125 -10.050781 12.742188 -10.5625 12.015625 -10.9375 C 11.296875 -11.3125 10.492188 -11.5 9.609375 -11.5 C 8.441406 -11.5 7.453125 -11.332031 6.640625 -11 C 5.835938 -10.664062 5.207031 -10.394531 4.75 -10.1875 L 2.984375 -12.53125 L 4.25 -21.75 L 16.5 -21.75 L 16.5 -18.640625 L 6.875 -18.640625 L 6.15625 -13.765625 C 6.675781 -13.972656 7.300781 -14.15625 8.03125 -14.3125 C 8.769531 -14.46875 9.488281 -14.546875 10.1875 -14.546875 C 11.539062 -14.546875 12.78125 -14.253906 13.90625 -13.671875 C 15.03125 -13.085938 15.9375 -12.265625 16.625 -11.203125 C 17.3125 -10.140625 17.65625 -8.867188 17.65625 -7.390625 C 17.65625 -5.941406 17.285156 -4.640625 16.546875 -3.484375 C 15.816406 -2.335938 14.820312 -1.429688 13.5625 -0.765625 C 12.3125 -0.109375 10.910156 0.21875 9.359375 0.21875 Z M 9.359375 0.21875 "/></g></g></g></g></g><g clip-path="url(#c25554d09d)"><g transform="matrix(1, 0, 0, 1, 237, -0.000000000000058398)"><g clip-path="url(#3e73754d0b)"><g fill="#ffffff" fill-opacity="1"><g transform="translate(64.582811, 402.900736)"><g><path d="M 216.625 -179.015625 C 228.644531 -179.015625 238.640625 -176.425781 246.609375 -171.25 C 254.585938 -166.070312 260.90625 -159.546875 265.5625 -151.671875 C 270.226562 -143.796875 273.546875 -135.816406 275.515625 -127.734375 C 277.484375 -119.648438 278.46875 -112.710938 278.46875 -106.921875 C 278.46875 -96.972656 276.03125 -85.421875 271.15625 -72.265625 C 266.289062 -59.109375 259.457031 -45.117188 250.65625 -30.296875 C 241.851562 -15.484375 231.441406 -0.617188 219.421875 14.296875 C 207.398438 29.210938 194.191406 43.40625 179.796875 56.875 C 165.398438 70.34375 150.117188 82.359375 133.953125 92.921875 C 117.796875 103.492188 101.269531 111.832031 84.375 117.9375 C 67.488281 124.050781 50.550781 127.109375 33.5625 127.109375 C 15.332031 127.109375 -0.410156 124.519531 -13.671875 119.34375 C -26.929688 114.164062 -37.550781 107.378906 -45.53125 98.984375 C -53.507812 90.597656 -58.742188 81.535156 -61.234375 71.796875 C -62.054688 68.890625 -61.429688 67.800781 -59.359375 68.53125 C -57.285156 69.257812 -53.867188 72.109375 -49.109375 77.078125 C -47.660156 78.523438 -46.9375 80.335938 -46.9375 82.515625 C -46.9375 84.691406 -46.003906 86.921875 -44.140625 89.203125 C -41.859375 91.890625 -38.644531 94.425781 -34.5 96.8125 C -30.351562 99.195312 -26.929688 101.007812 -24.234375 102.25 C -15.535156 105.769531 -8.546875 108.253906 -3.265625 109.703125 C 2.015625 111.160156 6.984375 111.941406 11.640625 112.046875 C 16.304688 112.148438 21.957031 112.097656 28.59375 111.890625 C 39.15625 111.472656 51.171875 108.773438 64.640625 103.796875 C 78.109375 98.828125 92.351562 91.988281 107.375 83.28125 C 122.394531 74.582031 137.414062 64.328125 152.4375 52.515625 C 167.46875 40.710938 181.765625 27.765625 195.328125 13.671875 C 208.898438 -0.410156 220.914062 -15.222656 231.375 -30.765625 C 241.84375 -46.304688 250.132812 -62.257812 256.25 -78.625 C 262.363281 -95 265.421875 -111.367188 265.421875 -127.734375 C 265.421875 -132.503906 263.914062 -137.789062 260.90625 -143.59375 C 257.90625 -149.394531 253.085938 -154.519531 246.453125 -158.96875 C 239.828125 -163.425781 231.234375 -165.96875 220.671875 -166.59375 C 209.484375 -167.207031 193.734375 -164.820312 173.421875 -159.4375 C 155.804688 -145.757812 138.660156 -134.566406 121.984375 -125.859375 C 105.304688 -117.160156 90.753906 -111.984375 78.328125 -110.328125 C 70.660156 -91.054688 63.457031 -72.253906 56.71875 -53.921875 C 49.988281 -35.585938 43.925781 -18.335938 38.53125 -2.171875 C 36.050781 5.492188 34.03125 13.363281 32.46875 21.4375 C 30.914062 29.519531 29.832031 36.671875 29.21875 42.890625 C 29.007812 45.992188 27.816406 47.546875 25.640625 47.546875 C 23.460938 47.546875 21.078125 46.457031 18.484375 44.28125 C 15.898438 42.113281 13.625 39.367188 11.65625 36.046875 C 9.6875 32.734375 8.804688 29.316406 9.015625 25.796875 C 9.222656 23.304688 10.3125 16.625 12.28125 5.75 C 14.25 -5.125 17.046875 -18.898438 20.671875 -35.578125 C 24.296875 -52.265625 28.539062 -70.757812 33.40625 -91.0625 C 38.28125 -111.363281 43.671875 -132.238281 49.578125 -153.6875 C 55.484375 -175.132812 61.695312 -196.0625 68.21875 -216.46875 C 74.75 -236.875 81.484375 -255.519531 88.421875 -272.40625 C 95.359375 -289.300781 102.25 -303.238281 109.09375 -314.21875 C 110.125 -315.875 112.296875 -316.390625 115.609375 -315.765625 C 118.929688 -315.148438 122.457031 -313.859375 126.1875 -311.890625 C 129.914062 -309.921875 133.125 -307.847656 135.8125 -305.671875 C 138.507812 -303.492188 139.859375 -301.785156 139.859375 -300.546875 C 139.859375 -298.878906 139.128906 -297.578125 137.671875 -296.640625 C 136.222656 -295.710938 134.253906 -294.523438 131.765625 -293.078125 C 129.285156 -291.628906 126.492188 -289.144531 123.390625 -285.625 C 117.585938 -279.195312 111.941406 -270.023438 106.453125 -258.109375 C 100.960938 -246.203125 95.675781 -232.835938 90.59375 -218.015625 C 85.519531 -203.203125 80.804688 -187.921875 76.453125 -172.171875 C 72.097656 -156.429688 68.160156 -141.410156 64.640625 -127.109375 C 66.097656 -128.148438 67.757812 -129.238281 69.625 -130.375 C 71.488281 -131.519531 73.457031 -132.710938 75.53125 -133.953125 C 87.75 -160.265625 100.070312 -186.210938 112.5 -211.796875 C 124.9375 -237.390625 137.523438 -261.476562 150.265625 -284.0625 C 163.015625 -306.644531 176.019531 -326.640625 189.28125 -344.046875 C 202.539062 -361.453125 216.109375 -375.078125 229.984375 -384.921875 C 243.867188 -394.765625 258.164062 -399.6875 272.875 -399.6875 C 281.164062 -399.6875 287.847656 -397.613281 292.921875 -393.46875 C 298.003906 -389.320312 301.679688 -384.398438 303.953125 -378.703125 C 306.234375 -373.003906 307.375 -367.671875 307.375 -362.703125 C 307.375 -347.578125 304.316406 -331.878906 298.203125 -315.609375 C 292.097656 -299.347656 283.757812 -283.03125 273.1875 -266.65625 C 262.625 -250.289062 250.554688 -234.546875 236.984375 -219.421875 C 223.410156 -204.296875 209.269531 -190.207031 194.5625 -177.15625 C 202.4375 -178.394531 209.789062 -179.015625 216.625 -179.015625 Z M 275.0625 -389.421875 C 263.457031 -389.421875 251.382812 -384.863281 238.84375 -375.75 C 226.3125 -366.632812 213.617188 -354.046875 200.765625 -337.984375 C 187.921875 -321.929688 175.179688 -303.441406 162.546875 -282.515625 C 149.910156 -261.585938 137.632812 -239.15625 125.71875 -215.21875 C 113.800781 -191.289062 102.457031 -167 91.6875 -142.34375 C 102.039062 -147.3125 113.640625 -152.332031 126.484375 -157.40625 C 139.335938 -162.488281 152.1875 -166.789062 165.03125 -170.3125 C 185.539062 -186.269531 203.617188 -203.625 219.265625 -222.375 C 234.910156 -241.125 248.015625 -259.769531 258.578125 -278.3125 C 269.148438 -296.863281 277.078125 -314.269531 282.359375 -330.53125 C 287.640625 -346.800781 290.28125 -360.425781 290.28125 -371.40625 C 290.28125 -378.03125 288.828125 -382.6875 285.921875 -385.375 C 283.023438 -388.070312 279.40625 -389.421875 275.0625 -389.421875 Z M 84.21875 -124.3125 C 97.6875 -129.5 110.640625 -135.613281 123.078125 -142.65625 C 117.066406 -140.375 110.898438 -137.882812 104.578125 -135.1875 C 98.265625 -132.5 91.789062 -129.601562 85.15625 -126.5 Z M 64.328125 -109.71875 C 62.460938 -109.71875 61.222656 -109.816406 60.609375 -110.015625 C 59.160156 -104.628906 57.914062 -99.140625 56.875 -93.546875 Z M 64.328125 -109.71875 "/></g></g></g></g></g></g></svg>