<svg xmlns="http://www.w3.org/2000/svg" xmlns:xlink="http://www.w3.org/1999/xlink" width="500" zoomAndPan="magnify" viewBox="0 0 375 374.999991" height="500" preserveAspectRatio="xMidYMid meet" version="1.0"><defs><g/><clipPath id="8a70d0d4d5"><rect x="0" width="151" y="0" height="237"/></clipPath><clipPath id="34e29d7402"><rect x="0" width="98" y="0" height="23"/></clipPath><clipPath id="0db0283636"><rect x="0" width="210" y="0" height="364"/></clipPath></defs><g transform="matrix(1, 0, 0, 1, 160, 130)"><g clip-path="url(#8a70d0d4d5)"><g fill="#ffffff" fill-opacity="1"><g transform="translate(0.736639, 189.244671)"><g><path d="M 45.140625 0 L 24.828125 0 L 24.828125 -131.65625 L 45.140625 -131.65625 L 45.140625 -64.328125 L 71.84375 -88.015625 L 120.1875 -131.65625 L 148.390625 -131.65625 L 86.890625 -77.671875 L 148.015625 0 L 121.875 0 L 72.03125 -64.328125 L 45.140625 -40.625 Z M 45.140625 0 "/></g></g></g></g></g><g transform="matrix(1, 0, 0, 1, 69, 303)"><g clip-path="url(#34e29d7402)"><g fill="#ffffff" fill-opacity="1"><g transform="translate(1.974985, 17.975413)"><g><path d="M 2.28125 -12.125 L 10.90625 -12.125 L 10.90625 -10.328125 L 4.15625 -10.328125 L 4.15625 -7.125 L 9.953125 -7.125 L 9.953125 -5.3125 L 4.15625 -5.3125 L 4.15625 -1.796875 L 10.90625 -1.796875 L 10.90625 0 L 2.28125 0 Z M 2.28125 -12.125 "/></g></g></g><g fill="#ffffff" fill-opacity="1"><g transform="translate(14.762497, 17.975413)"><g><path d="M 2.65625 -3.6875 C 3.207031 -3 3.785156 -2.460938 4.390625 -2.078125 C 5.003906 -1.691406 5.773438 -1.5 6.703125 -1.5 C 7.179688 -1.5 7.640625 -1.566406 8.078125 -1.703125 C 8.515625 -1.835938 8.867188 -2.035156 9.140625 -2.296875 C 9.421875 -2.554688 9.5625 -2.882812 9.5625 -3.28125 C 9.5625 -3.851562 9.269531 -4.273438 8.6875 -4.546875 C 8.113281 -4.816406 7.304688 -5.035156 6.265625 -5.203125 C 4.960938 -5.421875 3.925781 -5.804688 3.15625 -6.359375 C 2.394531 -6.921875 2.015625 -7.75 2.015625 -8.84375 C 2.015625 -9.550781 2.226562 -10.164062 2.65625 -10.6875 C 3.082031 -11.207031 3.644531 -11.601562 4.34375 -11.875 C 5.050781 -12.15625 5.828125 -12.296875 6.671875 -12.296875 C 7.734375 -12.296875 8.65625 -12.109375 9.4375 -11.734375 C 10.21875 -11.367188 10.828125 -10.847656 11.265625 -10.171875 L 9.984375 -8.84375 C 9.609375 -9.375 9.140625 -9.800781 8.578125 -10.125 C 8.023438 -10.457031 7.375 -10.625 6.625 -10.625 C 5.875 -10.625 5.238281 -10.472656 4.71875 -10.171875 C 4.207031 -9.878906 3.953125 -9.46875 3.953125 -8.9375 C 3.953125 -8.320312 4.222656 -7.878906 4.765625 -7.609375 C 5.304688 -7.347656 6.03125 -7.144531 6.9375 -7 C 7.519531 -6.90625 8.082031 -6.773438 8.625 -6.609375 C 9.164062 -6.453125 9.65625 -6.242188 10.09375 -5.984375 C 10.53125 -5.722656 10.875 -5.40625 11.125 -5.03125 C 11.375 -4.65625 11.5 -4.195312 11.5 -3.65625 C 11.5 -2.882812 11.300781 -2.210938 10.90625 -1.640625 C 10.507812 -1.066406 9.941406 -0.617188 9.203125 -0.296875 C 8.460938 0.015625 7.585938 0.171875 6.578125 0.171875 C 5.515625 0.171875 4.550781 -0.0078125 3.6875 -0.375 C 2.820312 -0.75 2.0625 -1.351562 1.40625 -2.1875 Z M 2.65625 -3.6875 "/></g></g></g><g fill="#ffffff" fill-opacity="1"><g transform="translate(27.723273, 17.975413)"><g><path d="M 4.9375 0 L 4.9375 -10.328125 L 1.0625 -10.328125 L 1.0625 -12.125 L 10.796875 -12.125 L 10.796875 -10.328125 L 6.8125 -10.328125 L 6.8125 0 Z M 4.9375 0 "/></g></g></g><g fill="#ffffff" fill-opacity="1"><g transform="translate(39.575106, 17.975413)"><g><path d="M 3.078125 0.1875 C 2.597656 0.1875 2.238281 0.0703125 2 -0.15625 C 1.757812 -0.394531 1.640625 -0.710938 1.640625 -1.109375 C 1.640625 -1.441406 1.757812 -1.738281 2 -2 C 2.238281 -2.269531 2.597656 -2.40625 3.078125 -2.40625 C 3.566406 -2.40625 3.925781 -2.285156 4.15625 -2.046875 C 4.394531 -1.816406 4.515625 -1.503906 4.515625 -1.109375 C 4.515625 -0.785156 4.394531 -0.488281 4.15625 -0.21875 C 3.925781 0.0507812 3.566406 0.1875 3.078125 0.1875 Z M 3.078125 0.1875 "/></g></g></g><g fill="#ffffff" fill-opacity="1"><g transform="translate(45.743612, 17.975413)"><g/></g></g><g fill="#ffffff" fill-opacity="1"><g transform="translate(52.016068, 17.975413)"><g><path d="M 9.984375 -1.796875 L 9.984375 0 L 2.03125 0 L 1.453125 -1.421875 L 5.34375 -5.375 C 5.71875 -5.757812 6.082031 -6.144531 6.4375 -6.53125 C 6.800781 -6.914062 7.097656 -7.296875 7.328125 -7.671875 C 7.554688 -8.054688 7.671875 -8.4375 7.671875 -8.8125 C 7.671875 -9.382812 7.492188 -9.816406 7.140625 -10.109375 C 6.785156 -10.410156 6.296875 -10.5625 5.671875 -10.5625 C 5.160156 -10.5625 4.625 -10.382812 4.0625 -10.03125 C 3.5 -9.675781 3.046875 -9.085938 2.703125 -8.265625 L 1.296875 -9.1875 C 1.691406 -10.175781 2.296875 -10.941406 3.109375 -11.484375 C 3.921875 -12.023438 4.847656 -12.296875 5.890625 -12.296875 C 6.617188 -12.296875 7.257812 -12.160156 7.8125 -11.890625 C 8.363281 -11.617188 8.796875 -11.234375 9.109375 -10.734375 C 9.429688 -10.242188 9.59375 -9.664062 9.59375 -9 C 9.59375 -8.394531 9.441406 -7.8125 9.140625 -7.25 C 8.835938 -6.6875 8.453125 -6.140625 7.984375 -5.609375 C 7.523438 -5.085938 7.050781 -4.578125 6.5625 -4.078125 L 4.3125 -1.796875 Z M 9.984375 -1.796875 "/></g></g></g><g fill="#ffffff" fill-opacity="1"><g transform="translate(63.088189, 17.975413)"><g><path d="M 6.046875 0.171875 C 4.984375 0.171875 4.085938 -0.09375 3.359375 -0.625 C 2.640625 -1.164062 2.09375 -1.90625 1.71875 -2.84375 C 1.351562 -3.78125 1.171875 -4.851562 1.171875 -6.0625 C 1.171875 -7.28125 1.351562 -8.351562 1.71875 -9.28125 C 2.09375 -10.21875 2.640625 -10.953125 3.359375 -11.484375 C 4.085938 -12.023438 4.984375 -12.296875 6.046875 -12.296875 C 7.097656 -12.296875 7.976562 -12.023438 8.6875 -11.484375 C 9.394531 -10.953125 9.929688 -10.21875 10.296875 -9.28125 C 10.671875 -8.351562 10.859375 -7.28125 10.859375 -6.0625 C 10.859375 -4.851562 10.671875 -3.78125 10.296875 -2.84375 C 9.929688 -1.90625 9.394531 -1.164062 8.6875 -0.625 C 7.976562 -0.09375 7.097656 0.171875 6.046875 0.171875 Z M 6.046875 -1.53125 C 6.984375 -1.53125 7.71875 -1.921875 8.25 -2.703125 C 8.78125 -3.484375 9.046875 -4.601562 9.046875 -6.0625 C 9.046875 -7.519531 8.78125 -8.640625 8.25 -9.421875 C 7.71875 -10.210938 6.984375 -10.609375 6.046875 -10.609375 C 5.078125 -10.609375 4.320312 -10.210938 3.78125 -9.421875 C 3.25 -8.640625 2.984375 -7.519531 2.984375 -6.0625 C 2.984375 -4.601562 3.25 -3.484375 3.78125 -2.703125 C 4.320312 -1.921875 5.078125 -1.53125 6.046875 -1.53125 Z M 6.046875 -1.53125 "/></g></g></g><g fill="#ffffff" fill-opacity="1"><g transform="translate(75.113308, 17.975413)"><g><path d="M 9.984375 -1.796875 L 9.984375 0 L 2.03125 0 L 1.453125 -1.421875 L 5.34375 -5.375 C 5.71875 -5.757812 6.082031 -6.144531 6.4375 -6.53125 C 6.800781 -6.914062 7.097656 -7.296875 7.328125 -7.671875 C 7.554688 -8.054688 7.671875 -8.4375 7.671875 -8.8125 C 7.671875 -9.382812 7.492188 -9.816406 7.140625 -10.109375 C 6.785156 -10.410156 6.296875 -10.5625 5.671875 -10.5625 C 5.160156 -10.5625 4.625 -10.382812 4.0625 -10.03125 C 3.5 -9.675781 3.046875 -9.085938 2.703125 -8.265625 L 1.296875 -9.1875 C 1.691406 -10.175781 2.296875 -10.941406 3.109375 -11.484375 C 3.921875 -12.023438 4.847656 -12.296875 5.890625 -12.296875 C 6.617188 -12.296875 7.257812 -12.160156 7.8125 -11.890625 C 8.363281 -11.617188 8.796875 -11.234375 9.109375 -10.734375 C 9.429688 -10.242188 9.59375 -9.664062 9.59375 -9 C 9.59375 -8.394531 9.441406 -7.8125 9.140625 -7.25 C 8.835938 -6.6875 8.453125 -6.140625 7.984375 -5.609375 C 7.523438 -5.085938 7.050781 -4.578125 6.5625 -4.078125 L 4.3125 -1.796875 Z M 9.984375 -1.796875 "/></g></g></g><g fill="#ffffff" fill-opacity="1"><g transform="translate(86.18543, 17.975413)"><g><path d="M 5.21875 0.125 C 4.34375 0.125 3.5625 -0.0664062 2.875 -0.453125 C 2.1875 -0.847656 1.613281 -1.332031 1.15625 -1.90625 L 2.1875 -3.1875 C 2.644531 -2.71875 3.117188 -2.332031 3.609375 -2.03125 C 4.097656 -1.738281 4.632812 -1.59375 5.21875 -1.59375 C 5.757812 -1.59375 6.242188 -1.695312 6.671875 -1.90625 C 7.097656 -2.113281 7.429688 -2.398438 7.671875 -2.765625 C 7.921875 -3.128906 8.046875 -3.546875 8.046875 -4.015625 C 8.046875 -4.484375 7.921875 -4.894531 7.671875 -5.25 C 7.429688 -5.601562 7.109375 -5.882812 6.703125 -6.09375 C 6.296875 -6.300781 5.847656 -6.40625 5.359375 -6.40625 C 4.710938 -6.40625 4.160156 -6.3125 3.703125 -6.125 C 3.253906 -5.945312 2.90625 -5.800781 2.65625 -5.6875 L 1.65625 -6.984375 L 2.375 -12.125 L 9.203125 -12.125 L 9.203125 -10.390625 L 3.828125 -10.390625 L 3.4375 -7.671875 C 3.71875 -7.785156 4.0625 -7.882812 4.46875 -7.96875 C 4.882812 -8.0625 5.289062 -8.109375 5.6875 -8.109375 C 6.4375 -8.109375 7.125 -7.945312 7.75 -7.625 C 8.382812 -7.300781 8.890625 -6.84375 9.265625 -6.25 C 9.648438 -5.65625 9.84375 -4.945312 9.84375 -4.125 C 9.84375 -3.3125 9.632812 -2.582031 9.21875 -1.9375 C 8.8125 -1.300781 8.257812 -0.796875 7.5625 -0.421875 C 6.863281 -0.0546875 6.082031 0.125 5.21875 0.125 Z M 5.21875 0.125 "/></g></g></g></g></g><g transform="matrix(1, 0, 0, 1, 49, 6)"><g clip-path="url(#0db0283636)"><g fill="#ffffff" fill-opacity="1"><g transform="translate(36.884096, 226.513088)"><g><path d="M 120.765625 -99.796875 C 127.460938 -99.796875 133.035156 -98.351562 137.484375 -95.46875 C 141.929688 -92.582031 145.453125 -88.941406 148.046875 -84.546875 C 150.648438 -80.160156 152.5 -75.710938 153.59375 -71.203125 C 154.695312 -66.703125 155.25 -62.835938 155.25 -59.609375 C 155.25 -54.054688 153.890625 -47.613281 151.171875 -40.28125 C 148.460938 -32.945312 144.648438 -25.148438 139.734375 -16.890625 C 134.828125 -8.628906 129.023438 -0.34375 122.328125 7.96875 C 115.628906 16.289062 108.265625 24.203125 100.234375 31.703125 C 92.203125 39.210938 83.679688 45.910156 74.671875 51.796875 C 65.660156 57.691406 56.445312 62.34375 47.03125 65.75 C 37.625 69.15625 28.1875 70.859375 18.71875 70.859375 C 8.550781 70.859375 -0.226562 69.414062 -7.625 66.53125 C -15.019531 63.644531 -20.9375 59.863281 -25.375 55.1875 C -29.820312 50.507812 -32.742188 45.457031 -34.140625 40.03125 C -34.597656 38.40625 -34.25 37.796875 -33.09375 38.203125 C -31.9375 38.609375 -30.03125 40.195312 -27.375 42.96875 C -26.5625 43.78125 -26.15625 44.789062 -26.15625 46 C -26.15625 47.21875 -25.640625 48.460938 -24.609375 49.734375 C -23.335938 51.234375 -21.546875 52.644531 -19.234375 53.96875 C -16.921875 55.300781 -15.015625 56.3125 -13.515625 57 C -8.660156 58.96875 -4.757812 60.351562 -1.8125 61.15625 C 1.125 61.96875 3.890625 62.398438 6.484375 62.453125 C 9.085938 62.515625 12.238281 62.488281 15.9375 62.375 C 21.832031 62.144531 28.53125 60.644531 36.03125 57.875 C 43.539062 55.101562 51.484375 51.289062 59.859375 46.4375 C 68.234375 41.582031 76.609375 35.863281 84.984375 29.28125 C 93.359375 22.695312 101.328125 15.476562 108.890625 7.625 C 116.460938 -0.226562 123.164062 -8.484375 129 -17.140625 C 134.832031 -25.804688 139.453125 -34.703125 142.859375 -43.828125 C 146.265625 -52.960938 147.96875 -62.09375 147.96875 -71.21875 C 147.96875 -73.875 147.128906 -76.816406 145.453125 -80.046875 C 143.773438 -83.285156 141.085938 -86.144531 137.390625 -88.625 C 133.703125 -91.101562 128.910156 -92.519531 123.015625 -92.875 C 116.773438 -93.21875 108 -91.890625 96.6875 -88.890625 C 86.863281 -81.265625 77.300781 -75.023438 68 -70.171875 C 58.707031 -65.316406 50.59375 -62.429688 43.65625 -61.515625 C 39.382812 -50.765625 35.367188 -40.28125 31.609375 -30.0625 C 27.859375 -19.84375 24.484375 -10.226562 21.484375 -1.21875 C 20.097656 3.0625 18.972656 7.453125 18.109375 11.953125 C 17.242188 16.460938 16.632812 20.445312 16.28125 23.90625 C 16.164062 25.644531 15.5 26.515625 14.28125 26.515625 C 13.070312 26.515625 11.742188 25.90625 10.296875 24.6875 C 8.859375 23.476562 7.585938 21.945312 6.484375 20.09375 C 5.390625 18.25 4.90625 16.34375 5.03125 14.375 C 5.144531 12.988281 5.75 9.265625 6.84375 3.203125 C 7.9375 -2.859375 9.492188 -10.535156 11.515625 -19.828125 C 13.535156 -29.128906 15.90625 -39.441406 18.625 -50.765625 C 21.34375 -62.085938 24.347656 -73.722656 27.640625 -85.671875 C 30.929688 -97.628906 34.394531 -109.296875 38.03125 -120.671875 C 41.664062 -132.054688 45.414062 -142.453125 49.28125 -151.859375 C 53.15625 -161.273438 57 -169.046875 60.8125 -175.171875 C 61.394531 -176.097656 62.609375 -176.382812 64.453125 -176.03125 C 66.304688 -175.6875 68.269531 -174.960938 70.34375 -173.859375 C 72.425781 -172.765625 74.21875 -171.613281 75.71875 -170.40625 C 77.21875 -169.195312 77.96875 -168.242188 77.96875 -167.546875 C 77.96875 -166.617188 77.5625 -165.894531 76.75 -165.375 C 75.945312 -164.863281 74.851562 -164.203125 73.46875 -163.390625 C 72.082031 -162.578125 70.519531 -161.191406 68.78125 -159.234375 C 65.550781 -155.648438 62.40625 -150.535156 59.34375 -143.890625 C 56.28125 -137.253906 53.332031 -129.804688 50.5 -121.546875 C 47.675781 -113.285156 45.050781 -104.765625 42.625 -95.984375 C 40.195312 -87.210938 38.003906 -78.835938 36.046875 -70.859375 C 36.847656 -71.441406 37.769531 -72.050781 38.8125 -72.6875 C 39.851562 -73.320312 40.953125 -73.984375 42.109375 -74.671875 C 48.921875 -89.347656 55.789062 -103.816406 62.71875 -118.078125 C 69.65625 -132.347656 76.675781 -145.773438 83.78125 -158.359375 C 90.882812 -170.953125 98.128906 -182.097656 105.515625 -191.796875 C 112.910156 -201.503906 120.476562 -209.097656 128.21875 -214.578125 C 135.957031 -220.066406 143.925781 -222.8125 152.125 -222.8125 C 156.75 -222.8125 160.472656 -221.65625 163.296875 -219.34375 C 166.128906 -217.039062 168.179688 -214.300781 169.453125 -211.125 C 170.722656 -207.945312 171.359375 -204.972656 171.359375 -202.203125 C 171.359375 -193.765625 169.65625 -185.007812 166.25 -175.9375 C 162.84375 -166.875 158.191406 -157.78125 152.296875 -148.65625 C 146.410156 -139.53125 139.679688 -130.75 132.109375 -122.3125 C 124.546875 -113.882812 116.664062 -106.035156 108.46875 -98.765625 C 112.851562 -99.453125 116.953125 -99.796875 120.765625 -99.796875 Z M 153.34375 -217.109375 C 146.875 -217.109375 140.144531 -214.566406 133.15625 -209.484375 C 126.164062 -204.398438 119.085938 -197.378906 111.921875 -188.421875 C 104.765625 -179.472656 97.660156 -169.164062 90.609375 -157.5 C 83.566406 -145.832031 76.722656 -133.328125 70.078125 -119.984375 C 63.441406 -106.640625 57.117188 -93.097656 51.109375 -79.359375 C 56.890625 -82.128906 63.359375 -84.925781 70.515625 -87.75 C 77.679688 -90.582031 84.84375 -92.984375 92 -94.953125 C 103.4375 -103.847656 113.515625 -113.519531 122.234375 -123.96875 C 130.960938 -134.425781 138.269531 -144.820312 144.15625 -155.15625 C 150.050781 -165.5 154.46875 -175.203125 157.40625 -184.265625 C 160.351562 -193.335938 161.828125 -200.929688 161.828125 -207.046875 C 161.828125 -210.742188 161.019531 -213.34375 159.40625 -214.84375 C 157.789062 -216.351562 155.769531 -217.109375 153.34375 -217.109375 Z M 46.953125 -69.3125 C 54.460938 -72.195312 61.679688 -75.601562 68.609375 -79.53125 C 65.265625 -78.257812 61.828125 -76.875 58.296875 -75.375 C 54.773438 -73.875 51.164062 -72.253906 47.46875 -70.515625 Z M 35.859375 -61.15625 C 34.828125 -61.15625 34.132812 -61.21875 33.78125 -61.34375 C 32.976562 -58.332031 32.285156 -55.269531 31.703125 -52.15625 Z M 35.859375 -61.15625 "/></g></g></g></g></g></svg>