<svg xmlns="http://www.w3.org/2000/svg" xmlns:xlink="http://www.w3.org/1999/xlink" width="40" zoomAndPan="magnify" viewBox="0 0 30 30.000001" height="40" preserveAspectRatio="xMidYMid meet" version="1.0"><defs><clipPath id="a924ffc7b6"><path d="M 0.484375 0 L 29.515625 0 L 29.515625 29.03125 L 0.484375 29.03125 Z M 0.484375 0 " clip-rule="nonzero"/></clipPath><clipPath id="66d072597d"><path d="M 0.484375 4.429688 L 17 4.429688 L 17 24.75 L 0.484375 24.75 Z M 0.484375 4.429688 " clip-rule="nonzero"/></clipPath><clipPath id="34aeabac4f"><path d="M 24 12 L 29.515625 12 L 29.515625 17 L 24 17 Z M 24 12 " clip-rule="nonzero"/></clipPath></defs><g clip-path="url(#a924ffc7b6)"><path fill="#ffffff" d="M 0.484375 0 L 29.515625 0 L 29.515625 29.03125 L 0.484375 29.03125 Z M 0.484375 0 " fill-opacity="1" fill-rule="nonzero"/><path fill="#ffffff" d="M 0.484375 0 L 29.515625 0 L 29.515625 29.03125 L 0.484375 29.03125 Z M 0.484375 0 " fill-opacity="1" fill-rule="nonzero"/></g><g clip-path="url(#66d072597d)"><path fill="#1d2821" d="M 16.058594 22.738281 L 16.070312 6.289062 C 16.070312 5.03125 14.671875 4.277344 13.621094 4.972656 L 1.199219 13.1875 C 1.089844 13.261719 0.992188 13.34375 0.902344 13.441406 C 0.816406 13.535156 0.742188 13.640625 0.679688 13.757812 C 0.617188 13.871094 0.570312 13.992188 0.539062 14.117188 C 0.507812 14.246094 0.492188 14.371094 0.492188 14.503906 C 0.492188 14.632812 0.507812 14.761719 0.539062 14.886719 C 0.570312 15.015625 0.617188 15.132812 0.679688 15.25 C 0.738281 15.363281 0.816406 15.46875 0.902344 15.566406 C 0.988281 15.664062 1.089844 15.746094 1.195312 15.816406 L 13.609375 24.054688 C 14.65625 24.75 16.058594 23.996094 16.058594 22.738281 Z M 16.058594 22.738281 " fill-opacity="1" fill-rule="nonzero"/></g><path fill="#919692" d="M 22.628906 20.101562 L 22.636719 8.925781 C 22.636719 8.070312 21.6875 7.558594 20.972656 8.03125 L 12.53125 13.613281 C 12.382812 13.710938 12.265625 13.839844 12.179688 14 C 12.09375 14.15625 12.054688 14.324219 12.054688 14.503906 C 12.054688 14.683594 12.09375 14.855469 12.179688 15.011719 C 12.265625 15.171875 12.382812 15.300781 12.53125 15.398438 L 20.964844 20.996094 C 21.675781 21.46875 22.628906 20.957031 22.628906 20.101562 Z M 22.628906 20.101562 " fill-opacity="1" fill-rule="nonzero"/><g clip-path="url(#34aeabac4f)"><path fill="#989d99" d="M 24.851562 14.511719 C 24.851562 14.203125 24.914062 13.90625 25.03125 13.621094 C 25.148438 13.335938 25.316406 13.085938 25.535156 12.867188 C 25.753906 12.648438 26.003906 12.480469 26.289062 12.363281 C 26.574219 12.242188 26.875 12.183594 27.183594 12.183594 C 27.492188 12.183594 27.789062 12.242188 28.074219 12.363281 C 28.359375 12.480469 28.609375 12.648438 28.828125 12.867188 C 29.046875 13.085938 29.214844 13.335938 29.332031 13.621094 C 29.453125 13.90625 29.511719 14.203125 29.511719 14.511719 C 29.511719 14.820312 29.453125 15.117188 29.332031 15.402344 C 29.214844 15.691406 29.046875 15.941406 28.828125 16.160156 C 28.609375 16.378906 28.359375 16.546875 28.074219 16.664062 C 27.789062 16.78125 27.492188 16.839844 27.183594 16.839844 C 26.875 16.839844 26.574219 16.78125 26.289062 16.664062 C 26.003906 16.546875 25.753906 16.378906 25.535156 16.160156 C 25.316406 15.941406 25.148438 15.691406 25.03125 15.402344 C 24.914062 15.117188 24.851562 14.820312 24.851562 14.511719 Z M 24.851562 14.511719 " fill-opacity="1" fill-rule="nonzero"/></g></svg>