<svg xmlns="http://www.w3.org/2000/svg" xmlns:xlink="http://www.w3.org/1999/xlink" width="40" zoomAndPan="magnify" viewBox="0 0 30 30.000001" height="40" preserveAspectRatio="xMidYMid meet" version="1.0"><defs><clipPath id="c095dec87f"><path d="M 0.484375 0 L 29.515625 0 L 29.515625 29.03125 L 0.484375 29.03125 Z M 0.484375 0 " clip-rule="nonzero"/></clipPath><clipPath id="5c920f5aa3"><path d="M 13 4.28125 L 29.515625 4.28125 L 29.515625 24.601562 L 13 24.601562 Z M 13 4.28125 " clip-rule="nonzero"/></clipPath><clipPath id="2124d09739"><path d="M 0.484375 12 L 6 12 L 6 17 L 0.484375 17 Z M 0.484375 12 " clip-rule="nonzero"/></clipPath></defs><g clip-path="url(#c095dec87f)"><path fill="#ffffff" d="M 0.484375 0 L 29.515625 0 L 29.515625 29.03125 L 0.484375 29.03125 Z M 0.484375 0 " fill-opacity="1" fill-rule="nonzero"/><path fill="#ffffff" d="M 0.484375 0 L 29.515625 0 L 29.515625 29.03125 L 0.484375 29.03125 Z M 0.484375 0 " fill-opacity="1" fill-rule="nonzero"/></g><g clip-path="url(#5c920f5aa3)"><path fill="#1d2821" d="M 13.941406 6.292969 L 13.929688 22.742188 C 13.929688 24 15.328125 24.753906 16.378906 24.058594 L 28.800781 15.84375 C 28.910156 15.769531 29.007812 15.6875 29.097656 15.589844 C 29.183594 15.496094 29.257812 15.390625 29.320312 15.273438 C 29.382812 15.160156 29.429688 15.039062 29.460938 14.914062 C 29.492188 14.785156 29.507812 14.660156 29.507812 14.527344 C 29.507812 14.398438 29.492188 14.269531 29.460938 14.144531 C 29.429688 14.015625 29.382812 13.894531 29.320312 13.78125 C 29.261719 13.667969 29.183594 13.5625 29.097656 13.464844 C 29.011719 13.367188 28.910156 13.285156 28.804688 13.210938 L 16.390625 4.976562 C 15.34375 4.28125 13.941406 5.035156 13.941406 6.292969 Z M 13.941406 6.292969 " fill-opacity="1" fill-rule="nonzero"/></g><path fill="#919692" d="M 7.371094 8.929688 L 7.363281 20.105469 C 7.363281 20.960938 8.3125 21.472656 9.027344 21 L 17.46875 15.417969 C 17.617188 15.320312 17.734375 15.191406 17.820312 15.03125 C 17.90625 14.875 17.945312 14.707031 17.945312 14.527344 C 17.945312 14.347656 17.90625 14.175781 17.820312 14.019531 C 17.734375 13.859375 17.617188 13.730469 17.46875 13.632812 L 9.035156 8.035156 C 8.324219 7.5625 7.371094 8.074219 7.371094 8.929688 Z M 7.371094 8.929688 " fill-opacity="1" fill-rule="nonzero"/><g clip-path="url(#2124d09739)"><path fill="#989d99" d="M 5.148438 14.519531 C 5.148438 14.828125 5.085938 15.125 4.96875 15.410156 C 4.851562 15.695312 4.683594 15.945312 4.464844 16.164062 C 4.246094 16.382812 3.996094 16.550781 3.710938 16.667969 C 3.425781 16.785156 3.125 16.847656 2.816406 16.847656 C 2.507812 16.847656 2.210938 16.785156 1.925781 16.667969 C 1.640625 16.550781 1.390625 16.382812 1.171875 16.164062 C 0.953125 15.945312 0.785156 15.695312 0.667969 15.410156 C 0.546875 15.125 0.488281 14.828125 0.488281 14.519531 C 0.488281 14.207031 0.546875 13.910156 0.667969 13.625 C 0.785156 13.339844 0.953125 13.089844 1.171875 12.871094 C 1.390625 12.652344 1.640625 12.484375 1.925781 12.367188 C 2.210938 12.25 2.507812 12.1875 2.816406 12.1875 C 3.125 12.1875 3.425781 12.25 3.710938 12.367188 C 3.996094 12.484375 4.246094 12.652344 4.464844 12.871094 C 4.683594 13.089844 4.851562 13.339844 4.96875 13.625 C 5.085938 13.910156 5.148438 14.207031 5.148438 14.519531 Z M 5.148438 14.519531 " fill-opacity="1" fill-rule="nonzero"/></g></svg>