<svg xmlns="http://www.w3.org/2000/svg" xmlns:xlink="http://www.w3.org/1999/xlink" width="40" zoomAndPan="magnify" viewBox="0 0 30 30.000001" height="40" preserveAspectRatio="xMidYMid meet" version="1.0"><defs><clipPath id="09513cceac"><path d="M 0.484375 0 L 29.515625 0 L 29.515625 29.03125 L 0.484375 29.03125 Z M 0.484375 0 " clip-rule="nonzero"/></clipPath><clipPath id="b0573a6354"><path d="M 5 13 L 25 13 L 25 29.03125 L 5 29.03125 Z M 5 13 " clip-rule="nonzero"/></clipPath></defs><g clip-path="url(#09513cceac)"><path fill="#ffffff" d="M 0.484375 0 L 29.515625 0 L 29.515625 29.03125 L 0.484375 29.03125 Z M 0.484375 0 " fill-opacity="1" fill-rule="nonzero"/><path fill="#ffffff" d="M 0.484375 0 L 29.515625 0 L 29.515625 29.03125 L 0.484375 29.03125 Z M 0.484375 0 " fill-opacity="1" fill-rule="nonzero"/></g><g clip-path="url(#b0573a6354)"><path fill="#1d2821" d="M 23.222656 13.457031 L 6.773438 13.445312 C 5.515625 13.445312 4.761719 14.84375 5.457031 15.894531 L 13.671875 28.316406 C 13.746094 28.425781 13.828125 28.523438 13.925781 28.609375 C 14.019531 28.699219 14.125 28.773438 14.242188 28.835938 C 14.355469 28.898438 14.476562 28.945312 14.601562 28.976562 C 14.730469 29.007812 14.855469 29.023438 14.988281 29.023438 C 15.117188 29.023438 15.246094 29.007812 15.371094 28.976562 C 15.5 28.945312 15.617188 28.898438 15.734375 28.835938 C 15.847656 28.773438 15.953125 28.699219 16.050781 28.613281 C 16.148438 28.527344 16.230469 28.425781 16.304688 28.320312 L 24.539062 15.90625 C 25.234375 14.859375 24.480469 13.457031 23.222656 13.457031 Z M 23.222656 13.457031 " fill-opacity="1" fill-rule="nonzero"/></g><path fill="#919692" d="M 20.585938 6.886719 L 9.410156 6.878906 C 8.554688 6.878906 8.042969 7.828125 8.515625 8.542969 L 14.097656 16.980469 C 14.195312 17.132812 14.324219 17.25 14.484375 17.335938 C 14.640625 17.417969 14.808594 17.460938 14.988281 17.460938 C 15.167969 17.460938 15.339844 17.417969 15.496094 17.335938 C 15.65625 17.25 15.785156 17.132812 15.882812 16.980469 L 21.480469 8.550781 C 21.953125 7.839844 21.441406 6.886719 20.585938 6.886719 Z M 20.585938 6.886719 " fill-opacity="1" fill-rule="nonzero"/><path fill="#989d99" d="M 14.996094 4.660156 C 14.6875 4.660156 14.390625 4.601562 14.105469 4.484375 C 13.820312 4.367188 13.570312 4.199219 13.351562 3.980469 C 13.132812 3.761719 12.964844 3.511719 12.847656 3.222656 C 12.726562 2.9375 12.667969 2.640625 12.667969 2.332031 C 12.667969 2.023438 12.726562 1.726562 12.847656 1.441406 C 12.964844 1.15625 13.132812 0.90625 13.351562 0.6875 C 13.570312 0.46875 13.820312 0.300781 14.105469 0.183594 C 14.390625 0.0625 14.6875 0.00390625 14.996094 0.00390625 C 15.304688 0.00390625 15.605469 0.0625 15.890625 0.183594 C 16.175781 0.300781 16.425781 0.46875 16.644531 0.6875 C 16.863281 0.90625 17.03125 1.15625 17.148438 1.441406 C 17.265625 1.726562 17.328125 2.023438 17.328125 2.332031 C 17.328125 2.640625 17.265625 2.9375 17.148438 3.222656 C 17.03125 3.511719 16.863281 3.761719 16.644531 3.980469 C 16.425781 4.199219 16.175781 4.367188 15.890625 4.484375 C 15.605469 4.601562 15.304688 4.660156 14.996094 4.660156 Z M 14.996094 4.660156 " fill-opacity="1" fill-rule="nonzero"/></svg>