<svg xmlns="http://www.w3.org/2000/svg" xmlns:xlink="http://www.w3.org/1999/xlink" width="1920" zoomAndPan="magnify" viewBox="0 0 1440 809.999993" height="1080" preserveAspectRatio="xMidYMid meet" version="1.0"><defs><filter x="0%" y="0%" width="100%" height="100%" id="866e87d52b"><feColorMatrix values="0 0 0 0 1 0 0 0 0 1 0 0 0 0 1 0 0 0 1 0" color-interpolation-filters="sRGB"/></filter><g/><mask id="5667c874c1"><g filter="url(#866e87d52b)"><rect x="-144" width="1728" fill="#000000" y="-80.999999" height="971.999992" fill-opacity="0.05"/></g></mask><clipPath id="c46181165e"><path d="M 0.519531 0.761719 L 434.921875 0.761719 L 434.921875 229.480469 L 0.519531 229.480469 Z M 0.519531 0.761719 " clip-rule="nonzero"/></clipPath><clipPath id="cba95273f5"><rect x="0" width="435" y="0" height="230"/></clipPath><clipPath id="8b6ecb3056"><rect x="0" width="435" y="0" height="230"/></clipPath><mask id="c8c7e5c18c"><g filter="url(#866e87d52b)"><rect x="-144" width="1728" fill="#000000" y="-80.999999" height="971.999992" fill-opacity="0.05"/></g></mask><clipPath id="8917b2d5be"><path d="M 0.0390625 0.199219 L 238.601562 0.199219 L 238.601562 68.601562 L 0.0390625 68.601562 Z M 0.0390625 0.199219 " clip-rule="nonzero"/></clipPath><clipPath id="5d8d059b59"><rect x="0" width="239" y="0" height="69"/></clipPath><clipPath id="8fa12c6532"><rect x="0" width="239" y="0" height="69"/></clipPath><mask id="9acdac2659"><g filter="url(#866e87d52b)"><rect x="-144" width="1728" fill="#000000" y="-80.999999" height="971.999992" fill-opacity="0.05"/></g></mask><clipPath id="b3ebe72ffd"><path d="M 0.480469 0.960938 L 97.199219 0.960938 L 97.199219 22.800781 L 0.480469 22.800781 Z M 0.480469 0.960938 " clip-rule="nonzero"/></clipPath><clipPath id="986458943f"><rect x="0" width="98" y="0" height="23"/></clipPath><clipPath id="5461d752fd"><rect x="0" width="98" y="0" height="23"/></clipPath></defs><g mask="url(#5667c874c1)"><g transform="matrix(1, 0, 0, 1, 497, 263)"><g clip-path="url(#8b6ecb3056)"><g clip-path="url(#c46181165e)"><g transform="matrix(1, 0, 0, 1, -0.000000000000056843, 0.000000000000056843)"><g clip-path="url(#cba95273f5)"><g fill="#233028" fill-opacity="1"><g transform="translate(24.558125, 143.533962)"><g><path d="M 76.328125 -63.078125 C 80.554688 -63.078125 84.078125 -62.160156 86.890625 -60.328125 C 89.703125 -58.503906 91.925781 -56.207031 93.5625 -53.4375 C 95.207031 -50.664062 96.375 -47.851562 97.0625 -45 C 97.757812 -42.15625 98.109375 -39.710938 98.109375 -37.671875 C 98.109375 -34.160156 97.25 -30.085938 95.53125 -25.453125 C 93.820312 -20.816406 91.414062 -15.890625 88.3125 -10.671875 C 85.207031 -5.453125 81.535156 -0.21875 77.296875 5.03125 C 73.066406 10.289062 68.414062 15.289062 63.34375 20.03125 C 58.269531 24.78125 52.882812 29.015625 47.1875 32.734375 C 41.5 36.460938 35.679688 39.398438 29.734375 41.546875 C 23.785156 43.703125 17.816406 44.78125 11.828125 44.78125 C 5.398438 44.78125 -0.144531 43.867188 -4.8125 42.046875 C -9.488281 40.222656 -13.226562 37.832031 -16.03125 34.875 C -18.84375 31.914062 -20.691406 28.722656 -21.578125 25.296875 C -21.867188 24.273438 -21.644531 23.890625 -20.90625 24.140625 C -20.175781 24.398438 -18.972656 25.40625 -17.296875 27.15625 C -16.785156 27.664062 -16.53125 28.300781 -16.53125 29.0625 C -16.53125 29.832031 -16.203125 30.617188 -15.546875 31.421875 C -14.742188 32.367188 -13.613281 33.265625 -12.15625 34.109375 C -10.695312 34.953125 -9.492188 35.59375 -8.546875 36.03125 C -5.472656 37.269531 -3.003906 38.144531 -1.140625 38.65625 C 0.710938 39.164062 2.457031 39.4375 4.09375 39.46875 C 5.738281 39.507812 7.734375 39.492188 10.078125 39.421875 C 13.796875 39.273438 18.023438 38.320312 22.765625 36.5625 C 27.515625 34.8125 32.535156 32.40625 37.828125 29.34375 C 43.117188 26.28125 48.410156 22.664062 53.703125 18.5 C 59.003906 14.34375 64.046875 9.78125 68.828125 4.8125 C 73.609375 -0.144531 77.835938 -5.359375 81.515625 -10.828125 C 85.203125 -16.304688 88.125 -21.929688 90.28125 -27.703125 C 92.4375 -33.472656 93.515625 -39.238281 93.515625 -45 C 93.515625 -46.675781 92.984375 -48.535156 91.921875 -50.578125 C 90.867188 -52.628906 89.171875 -54.4375 86.828125 -56 C 84.492188 -57.570312 81.46875 -58.46875 77.75 -58.6875 C 73.800781 -58.90625 68.25 -58.066406 61.09375 -56.171875 C 54.894531 -51.359375 48.851562 -47.414062 42.96875 -44.34375 C 37.09375 -41.28125 31.96875 -39.457031 27.59375 -38.875 C 24.894531 -32.082031 22.359375 -25.457031 19.984375 -19 C 17.609375 -12.539062 15.472656 -6.460938 13.578125 -0.765625 C 12.703125 1.929688 11.988281 4.703125 11.4375 7.546875 C 10.894531 10.398438 10.515625 12.921875 10.296875 15.109375 C 10.222656 16.203125 9.800781 16.75 9.03125 16.75 C 8.269531 16.75 7.429688 16.363281 6.515625 15.59375 C 5.597656 14.832031 4.789062 13.867188 4.09375 12.703125 C 3.40625 11.535156 3.097656 10.332031 3.171875 9.09375 C 3.242188 8.21875 3.625 5.863281 4.3125 2.03125 C 5.007812 -1.800781 6 -6.65625 7.28125 -12.53125 C 8.5625 -18.414062 10.054688 -24.929688 11.765625 -32.078125 C 13.484375 -39.234375 15.382812 -46.585938 17.46875 -54.140625 C 19.550781 -61.703125 21.738281 -69.078125 24.03125 -76.265625 C 26.332031 -83.453125 28.707031 -90.019531 31.15625 -95.96875 C 33.601562 -101.925781 36.03125 -106.835938 38.4375 -110.703125 C 38.800781 -111.285156 39.566406 -111.46875 40.734375 -111.25 C 41.898438 -111.03125 43.140625 -110.570312 44.453125 -109.875 C 45.765625 -109.1875 46.894531 -108.457031 47.84375 -107.6875 C 48.800781 -106.925781 49.28125 -106.328125 49.28125 -105.890625 C 49.28125 -105.304688 49.019531 -104.847656 48.5 -104.515625 C 47.988281 -104.191406 47.296875 -103.769531 46.421875 -103.25 C 45.546875 -102.738281 44.5625 -101.863281 43.46875 -100.625 C 41.425781 -98.363281 39.4375 -95.132812 37.5 -90.9375 C 35.570312 -86.738281 33.710938 -82.03125 31.921875 -76.8125 C 30.128906 -71.59375 28.46875 -66.207031 26.9375 -60.65625 C 25.40625 -55.113281 24.019531 -49.820312 22.78125 -44.78125 C 23.289062 -45.144531 23.875 -45.523438 24.53125 -45.921875 C 25.1875 -46.328125 25.878906 -46.75 26.609375 -47.1875 C 30.910156 -56.457031 35.25 -65.597656 39.625 -74.609375 C 44.007812 -83.628906 48.445312 -92.117188 52.9375 -100.078125 C 57.425781 -108.035156 62.003906 -115.082031 66.671875 -121.21875 C 71.347656 -127.351562 76.128906 -132.148438 81.015625 -135.609375 C 85.910156 -139.078125 90.953125 -140.8125 96.140625 -140.8125 C 99.054688 -140.8125 101.410156 -140.082031 103.203125 -138.625 C 104.992188 -137.164062 106.289062 -135.429688 107.09375 -133.421875 C 107.894531 -131.421875 108.296875 -129.539062 108.296875 -127.78125 C 108.296875 -122.457031 107.21875 -116.925781 105.0625 -111.1875 C 102.90625 -105.457031 99.96875 -99.707031 96.25 -93.9375 C 92.53125 -88.175781 88.28125 -82.628906 83.5 -77.296875 C 78.71875 -71.972656 73.734375 -67.015625 68.546875 -62.421875 C 71.316406 -62.859375 73.910156 -63.078125 76.328125 -63.078125 Z M 96.90625 -137.203125 C 92.820312 -137.203125 88.570312 -135.59375 84.15625 -132.375 C 79.738281 -129.164062 75.265625 -124.734375 70.734375 -119.078125 C 66.210938 -113.421875 61.722656 -106.90625 57.265625 -99.53125 C 52.816406 -92.15625 48.492188 -84.253906 44.296875 -75.828125 C 40.097656 -67.398438 36.097656 -58.84375 32.296875 -50.15625 C 35.953125 -51.90625 40.039062 -53.671875 44.5625 -55.453125 C 49.09375 -57.242188 53.617188 -58.757812 58.140625 -60 C 65.367188 -65.625 71.738281 -71.738281 77.25 -78.34375 C 82.757812 -84.945312 87.375 -91.515625 91.09375 -98.046875 C 94.820312 -104.585938 97.613281 -110.722656 99.46875 -116.453125 C 101.332031 -122.179688 102.265625 -126.984375 102.265625 -130.859375 C 102.265625 -133.191406 101.753906 -134.832031 100.734375 -135.78125 C 99.710938 -136.726562 98.4375 -137.203125 96.90625 -137.203125 Z M 29.671875 -43.796875 C 34.421875 -45.617188 38.984375 -47.773438 43.359375 -50.265625 C 41.242188 -49.460938 39.070312 -48.582031 36.84375 -47.625 C 34.613281 -46.675781 32.332031 -45.65625 30 -44.5625 Z M 22.671875 -38.65625 C 22.015625 -38.65625 21.578125 -38.691406 21.359375 -38.765625 C 20.847656 -36.867188 20.40625 -34.929688 20.03125 -32.953125 Z M 22.671875 -38.65625 "/></g></g></g><g fill="#233028" fill-opacity="1"><g transform="translate(125.27649, 143.533962)"><g><path d="M 39.75 14.890625 C 37.851562 14.890625 36.132812 14.34375 34.59375 13.25 C 33.0625 12.15625 31.835938 10.820312 30.921875 9.25 C 30.015625 7.6875 29.5625 6.242188 29.5625 4.921875 C 29.5625 2.585938 29.960938 -0.203125 30.765625 -3.453125 C 31.566406 -6.703125 32.570312 -10.164062 33.78125 -13.84375 C 34.988281 -17.53125 36.25 -21.234375 37.5625 -24.953125 C 38.875 -28.679688 40.039062 -32.226562 41.0625 -35.59375 C 38.800781 -33.539062 36.351562 -31 33.71875 -27.96875 C 31.09375 -24.945312 28.410156 -21.789062 25.671875 -18.5 C 22.941406 -15.21875 20.296875 -12.171875 17.734375 -9.359375 C 15.179688 -6.546875 12.8125 -4.242188 10.625 -2.453125 C 8.4375 -0.671875 6.609375 0.21875 5.140625 0.21875 C 4.410156 0.21875 3.585938 -0.109375 2.671875 -0.765625 C 1.765625 -1.421875 0.960938 -2.3125 0.265625 -3.4375 C -0.421875 -4.570312 -0.765625 -5.765625 -0.765625 -7.015625 C -0.765625 -8.546875 -0.347656 -10.734375 0.484375 -13.578125 C 1.328125 -16.421875 2.476562 -19.503906 3.9375 -22.828125 C 5.394531 -26.148438 7.054688 -29.34375 8.921875 -32.40625 C 10.785156 -35.476562 12.738281 -37.976562 14.78125 -39.90625 C 16.820312 -41.84375 18.867188 -42.8125 20.921875 -42.8125 C 23.472656 -42.8125 25.734375 -42.226562 27.703125 -41.0625 C 29.671875 -39.894531 31.179688 -38.632812 32.234375 -37.28125 C 33.296875 -35.9375 33.679688 -35.046875 33.390625 -34.609375 C 32.953125 -34.015625 32.40625 -33.9375 31.75 -34.375 C 31.09375 -34.820312 30.363281 -35.390625 29.5625 -36.078125 C 28.757812 -36.773438 27.957031 -37.125 27.15625 -37.125 C 25.988281 -37.125 24.488281 -36.425781 22.65625 -35.03125 C 20.832031 -33.644531 18.914062 -31.800781 16.90625 -29.5 C 14.90625 -27.207031 13.03125 -24.65625 11.28125 -21.84375 C 9.53125 -19.03125 8.101562 -16.21875 7 -13.40625 C 5.90625 -10.601562 5.359375 -8.03125 5.359375 -5.6875 C 5.359375 -5.101562 5.519531 -4.738281 5.84375 -4.59375 C 6.175781 -4.445312 6.414062 -4.375 6.5625 -4.375 C 7.445312 -4.375 8.691406 -5.015625 10.296875 -6.296875 C 11.898438 -7.578125 13.722656 -9.273438 15.765625 -11.390625 C 17.804688 -13.503906 19.90625 -15.785156 22.0625 -18.234375 C 24.21875 -20.679688 26.28125 -23.070312 28.25 -25.40625 C 30.21875 -27.738281 31.953125 -29.816406 33.453125 -31.640625 C 34.953125 -33.472656 35.992188 -34.789062 36.578125 -35.59375 C 38.472656 -37.925781 39.894531 -39.582031 40.84375 -40.5625 C 41.789062 -41.550781 42.628906 -42.046875 43.359375 -42.046875 C 44.160156 -42.046875 45.164062 -41.585938 46.375 -40.671875 C 47.582031 -39.765625 48.1875 -38.582031 48.1875 -37.125 C 48.1875 -36.46875 47.890625 -35.078125 47.296875 -32.953125 C 46.710938 -30.835938 45.945312 -28.285156 45 -25.296875 C 44.050781 -22.304688 43.046875 -19.113281 41.984375 -15.71875 C 40.929688 -12.320312 39.929688 -8.976562 38.984375 -5.6875 C 38.035156 -2.40625 37.269531 0.53125 36.6875 3.125 C 36.101562 5.71875 35.8125 7.742188 35.8125 9.203125 C 35.8125 10.148438 36.082031 10.769531 36.625 11.0625 C 37.175781 11.351562 37.597656 11.5 37.890625 11.5 C 39.128906 11.5 40.929688 10.566406 43.296875 8.703125 C 45.671875 6.835938 48.335938 4.410156 51.296875 1.421875 C 54.253906 -1.566406 57.300781 -4.796875 60.4375 -8.265625 C 63.582031 -11.734375 66.578125 -15.109375 69.421875 -18.390625 C 72.265625 -21.679688 74.765625 -24.546875 76.921875 -26.984375 C 79.078125 -29.429688 80.628906 -31.09375 81.578125 -31.96875 C 82.378906 -32.695312 82.90625 -32.710938 83.15625 -32.015625 C 83.414062 -31.328125 83.363281 -30.765625 83 -30.328125 C 82.925781 -30.179688 82.140625 -29.234375 80.640625 -27.484375 C 79.148438 -25.734375 77.234375 -23.488281 74.890625 -20.75 C 72.554688 -18.007812 69.984375 -14.992188 67.171875 -11.703125 C 64.367188 -8.421875 61.539062 -5.175781 58.6875 -1.96875 C 56.0625 0.945312 53.5625 3.703125 51.1875 6.296875 C 48.8125 8.890625 46.640625 10.96875 44.671875 12.53125 C 42.703125 14.101562 41.0625 14.890625 39.75 14.890625 Z M 39.75 14.890625 "/></g></g></g><g fill="#233028" fill-opacity="1"><g transform="translate(192.932949, 143.533962)"><g><path d="M 7.015625 6.234375 C 6.566406 7.335938 5.90625 7.703125 5.03125 7.328125 C 4.15625 6.960938 3.28125 6.210938 2.40625 5.078125 C 1.53125 3.953125 0.835938 2.710938 0.328125 1.359375 C -0.179688 0.015625 -0.289062 -1.09375 0 -1.96875 C 0.21875 -2.550781 0.691406 -4.007812 1.421875 -6.34375 C 2.148438 -8.6875 3.039062 -11.515625 4.09375 -14.828125 C 5.15625 -18.148438 6.253906 -21.707031 7.390625 -25.5 C 8.523438 -29.300781 9.582031 -32.988281 10.5625 -36.5625 C 11.550781 -40.144531 12.351562 -43.34375 12.96875 -46.15625 C 13.59375 -48.96875 13.90625 -51.03125 13.90625 -52.34375 C 13.90625 -53 14.285156 -53.195312 15.046875 -52.9375 C 15.816406 -52.6875 16.691406 -52.140625 17.671875 -51.296875 C 18.660156 -50.460938 19.484375 -49.550781 20.140625 -48.5625 C 20.804688 -47.570312 21.03125 -46.675781 20.8125 -45.875 C 20.664062 -45.363281 20.1875 -43.957031 19.375 -41.65625 C 18.570312 -39.363281 17.601562 -36.570312 16.46875 -33.28125 C 15.34375 -30 14.195312 -26.640625 13.03125 -23.203125 C 11.863281 -19.773438 10.820312 -16.675781 9.90625 -13.90625 C 9 -11.132812 8.398438 -9.035156 8.109375 -7.609375 C 7.816406 -6.179688 7.960938 -5.90625 8.546875 -6.78125 C 9.273438 -7.8125 10.441406 -9.492188 12.046875 -11.828125 C 13.648438 -14.160156 15.492188 -16.75 17.578125 -19.59375 C 19.660156 -22.445312 21.8125 -25.1875 24.03125 -27.8125 C 26.257812 -30.4375 28.394531 -32.609375 30.4375 -34.328125 C 32.476562 -36.046875 34.195312 -36.867188 35.59375 -36.796875 C 37.125 -36.796875 38.328125 -36.023438 39.203125 -34.484375 C 40.078125 -32.953125 40.785156 -31.21875 41.328125 -29.28125 C 41.878906 -27.351562 42.410156 -25.695312 42.921875 -24.3125 C 43.503906 -22.925781 44.125 -22.195312 44.78125 -22.125 C 45.875 -21.976562 47.28125 -22.269531 49 -23 C 50.71875 -23.726562 52.5625 -24.691406 54.53125 -25.890625 C 56.5 -27.097656 58.394531 -28.359375 60.21875 -29.671875 C 62.050781 -30.984375 63.640625 -32.1875 64.984375 -33.28125 C 66.335938 -34.382812 67.234375 -35.117188 67.671875 -35.484375 C 68.835938 -36.503906 69.617188 -36.628906 70.015625 -35.859375 C 70.421875 -35.097656 70.113281 -34.273438 69.09375 -33.390625 C 68.65625 -33.023438 67.816406 -32.257812 66.578125 -31.09375 C 65.335938 -29.925781 63.875 -28.59375 62.1875 -27.09375 C 60.507812 -25.601562 58.773438 -24.125 56.984375 -22.65625 C 55.203125 -21.195312 53.546875 -19.992188 52.015625 -19.046875 C 50.484375 -18.097656 49.242188 -17.585938 48.296875 -17.515625 C 45.660156 -17.441406 43.539062 -18.265625 41.9375 -19.984375 C 40.332031 -21.703125 39.128906 -23.546875 38.328125 -25.515625 C 37.671875 -27.191406 37.140625 -28.648438 36.734375 -29.890625 C 36.335938 -31.128906 35.738281 -31.710938 34.9375 -31.640625 C 33.539062 -31.492188 31.945312 -30.582031 30.15625 -28.90625 C 28.375 -27.226562 26.476562 -25.070312 24.46875 -22.4375 C 22.46875 -19.8125 20.5 -17.003906 18.5625 -14.015625 C 16.625 -11.023438 14.832031 -8.101562 13.1875 -5.25 C 11.550781 -2.40625 10.1875 0.0351562 9.09375 2.078125 C 8 4.117188 7.304688 5.503906 7.015625 6.234375 Z M 7.015625 6.234375 "/></g></g></g><g fill="#233028" fill-opacity="1"><g transform="translate(247.233281, 143.533962)"><g><path d="M 3.0625 13.46875 C 2.695312 13.757812 2.003906 13.757812 0.984375 13.46875 C -0.0351562 13.175781 -0.960938 12.609375 -1.796875 11.765625 C -2.640625 10.929688 -3.023438 9.820312 -2.953125 8.4375 C -2.734375 5.65625 -2.054688 2.019531 -0.921875 -2.46875 C 0.203125 -6.957031 1.65625 -11.898438 3.4375 -17.296875 C 5.226562 -22.703125 7.148438 -28.066406 9.203125 -33.390625 C 9.421875 -33.898438 9.421875 -34.414062 9.203125 -34.9375 L 9.09375 -35.15625 C 8.800781 -35.738281 8.765625 -36.285156 8.984375 -36.796875 C 9.492188 -37.816406 10.113281 -39.035156 10.84375 -40.453125 C 11.570312 -41.878906 12.300781 -43.15625 13.03125 -44.28125 C 13.757812 -45.414062 14.34375 -46.054688 14.78125 -46.203125 C 15.289062 -46.347656 16 -46.203125 16.90625 -45.765625 C 17.820312 -45.328125 18.644531 -44.722656 19.375 -43.953125 C 20.101562 -43.191406 20.429688 -42.335938 20.359375 -41.390625 C 20.285156 -40.734375 19.628906 -39.015625 18.390625 -36.234375 C 17.148438 -33.460938 15.65625 -29.976562 13.90625 -25.78125 C 12.15625 -21.582031 10.457031 -17 8.8125 -12.03125 C 7.164062 -7.070312 5.90625 -2.039062 5.03125 3.0625 C 4.882812 3.863281 5.304688 3.609375 6.296875 2.296875 C 7.285156 0.984375 8.671875 -1.019531 10.453125 -3.71875 C 12.242188 -6.425781 14.34375 -9.492188 16.75 -12.921875 C 19.15625 -16.347656 21.742188 -19.847656 24.515625 -23.421875 C 27.296875 -27.003906 30.128906 -30.3125 33.015625 -33.34375 C 35.898438 -36.375 38.726562 -38.816406 41.5 -40.671875 C 44.269531 -42.535156 46.828125 -43.46875 49.171875 -43.46875 C 50.628906 -43.46875 51.847656 -42.921875 52.828125 -41.828125 C 53.816406 -40.734375 54.3125 -39.019531 54.3125 -36.6875 C 54.3125 -35.445312 54 -33.617188 53.375 -31.203125 C 52.757812 -28.796875 51.992188 -26.113281 51.078125 -23.15625 C 50.171875 -20.195312 49.238281 -17.203125 48.28125 -14.171875 C 47.332031 -11.148438 46.492188 -8.320312 45.765625 -5.6875 C 45.035156 -3.0625 44.539062 -0.894531 44.28125 0.8125 C 44.03125 2.53125 44.160156 3.535156 44.671875 3.828125 C 45.398438 4.265625 46.601562 3.953125 48.28125 2.890625 C 49.96875 1.835938 51.941406 0.3125 54.203125 -1.6875 C 56.460938 -3.695312 58.867188 -5.976562 61.421875 -8.53125 C 63.984375 -11.09375 66.503906 -13.703125 68.984375 -16.359375 C 71.460938 -19.023438 73.742188 -21.523438 75.828125 -23.859375 C 77.910156 -26.203125 79.644531 -28.15625 81.03125 -29.71875 C 82.414062 -31.289062 83.253906 -32.222656 83.546875 -32.515625 C 84.566406 -33.609375 85.296875 -33.84375 85.734375 -33.21875 C 86.171875 -32.601562 86.097656 -31.894531 85.515625 -31.09375 C 85.296875 -30.800781 84.398438 -29.671875 82.828125 -27.703125 C 81.265625 -25.734375 79.257812 -23.285156 76.8125 -20.359375 C 74.363281 -17.441406 71.679688 -14.375 68.765625 -11.15625 C 65.847656 -7.945312 62.925781 -4.9375 60 -2.125 C 57.082031 0.675781 54.363281 2.972656 51.84375 4.765625 C 49.332031 6.554688 47.269531 7.453125 45.65625 7.453125 C 43.90625 7.453125 42.445312 7.03125 41.28125 6.1875 C 40.113281 5.34375 39.253906 4.410156 38.703125 3.390625 C 38.160156 2.367188 37.890625 1.53125 37.890625 0.875 C 37.890625 -2.039062 38.328125 -5.285156 39.203125 -8.859375 C 40.078125 -12.441406 41.113281 -16.003906 42.3125 -19.546875 C 43.519531 -23.085938 44.671875 -26.390625 45.765625 -29.453125 C 46.859375 -32.515625 47.679688 -35.050781 48.234375 -37.0625 C 48.785156 -39.070312 48.804688 -40.257812 48.296875 -40.625 C 47.265625 -41.425781 45.617188 -41.039062 43.359375 -39.46875 C 41.097656 -37.90625 38.394531 -35.40625 35.25 -31.96875 C 32.113281 -28.539062 28.738281 -24.453125 25.125 -19.703125 C 21.507812 -14.960938 17.820312 -9.765625 14.0625 -4.109375 C 10.3125 1.546875 6.644531 7.40625 3.0625 13.46875 Z M 3.0625 13.46875 "/></g></g></g><g fill="#233028" fill-opacity="1"><g transform="translate(319.378284, 143.533962)"><g><path d="M 61.421875 -32.953125 C 62.085938 -33.753906 62.640625 -33.988281 63.078125 -33.65625 C 63.515625 -33.332031 63.769531 -32.785156 63.84375 -32.015625 C 63.914062 -31.253906 63.625 -30.546875 62.96875 -29.890625 C 61.863281 -28.722656 60.21875 -26.988281 58.03125 -24.6875 C 55.84375 -22.394531 53.304688 -19.785156 50.421875 -16.859375 C 47.535156 -13.941406 44.503906 -10.984375 41.328125 -7.984375 C 38.160156 -4.992188 35.003906 -2.242188 31.859375 0.265625 C 28.722656 2.785156 25.820312 4.832031 23.15625 6.40625 C 20.488281 7.976562 18.207031 8.765625 16.3125 8.765625 C 12.15625 8.765625 8.707031 7.503906 5.96875 4.984375 C 3.226562 2.460938 1.859375 -1.347656 1.859375 -6.453125 C 1.859375 -9.742188 2.382812 -13.140625 3.4375 -16.640625 C 4.5 -20.148438 5.925781 -23.523438 7.71875 -26.765625 C 9.507812 -30.015625 11.535156 -32.953125 13.796875 -35.578125 C 16.054688 -38.210938 18.425781 -40.296875 20.90625 -41.828125 C 23.394531 -43.359375 25.84375 -44.125 28.25 -44.125 C 30.875 -44.125 32.878906 -43.519531 34.265625 -42.3125 C 35.660156 -41.113281 36.359375 -39.53125 36.359375 -37.5625 C 36.359375 -35.882812 35.769531 -34.019531 34.59375 -31.96875 C 33.425781 -29.925781 31.945312 -28.191406 30.15625 -26.765625 C 28.375 -25.347656 26.460938 -24.640625 24.421875 -24.640625 C 22.597656 -24.640625 21.171875 -25.09375 20.140625 -26 C 19.117188 -26.914062 18.171875 -27.921875 17.296875 -29.015625 C 14.816406 -25.296875 12.679688 -21.046875 10.890625 -16.265625 C 9.109375 -11.484375 8.21875 -6.71875 8.21875 -1.96875 C 8.21875 0.507812 8.800781 2.515625 9.96875 4.046875 C 11.132812 5.578125 12.847656 6.34375 15.109375 6.34375 C 17.078125 6.269531 19.519531 5.359375 22.4375 3.609375 C 25.363281 1.859375 28.488281 -0.398438 31.8125 -3.171875 C 35.132812 -5.953125 38.4375 -8.945312 41.71875 -12.15625 C 45 -15.363281 48.046875 -18.445312 50.859375 -21.40625 C 53.671875 -24.363281 56.023438 -26.898438 57.921875 -29.015625 C 59.816406 -31.128906 60.984375 -32.441406 61.421875 -32.953125 Z M 31.53125 -40.953125 C 29.707031 -40.953125 27.59375 -39.96875 25.1875 -38 C 22.78125 -36.03125 20.40625 -33.4375 18.0625 -30.21875 C 18.644531 -29.488281 19.320312 -28.90625 20.09375 -28.46875 C 20.863281 -28.03125 21.578125 -27.8125 22.234375 -27.8125 C 23.179688 -27.8125 24.492188 -28.335938 26.171875 -29.390625 C 27.847656 -30.453125 29.378906 -31.878906 30.765625 -33.671875 C 32.148438 -35.460938 32.84375 -37.414062 32.84375 -39.53125 C 32.84375 -40.476562 32.40625 -40.953125 31.53125 -40.953125 Z M 31.53125 -40.953125 "/></g></g></g><g fill="#233028" fill-opacity="1"><g transform="translate(369.190097, 143.533962)"><g><path d="M 62.640625 -26.828125 C 63.003906 -26.972656 63.367188 -26.695312 63.734375 -26 C 64.097656 -25.3125 64.097656 -24.894531 63.734375 -24.75 C 60.660156 -23.726562 56.96875 -22.066406 52.65625 -19.765625 C 48.351562 -17.460938 43.71875 -14.703125 38.75 -11.484375 C 33.789062 -8.273438 28.757812 -4.8125 23.65625 -1.09375 C 26.644531 0.507812 28.703125 2.316406 29.828125 4.328125 C 30.960938 6.335938 31.53125 8.765625 31.53125 11.609375 C 31.53125 13.867188 30.742188 16.476562 29.171875 19.4375 C 27.609375 22.394531 25.507812 25.457031 22.875 28.625 C 20.25 31.800781 17.3125 34.867188 14.0625 37.828125 C 10.820312 40.785156 7.46875 43.453125 4 45.828125 C 0.53125 48.203125 -2.828125 50.097656 -6.078125 51.515625 C -9.328125 52.941406 -12.226562 53.65625 -14.78125 53.65625 C -17.257812 53.65625 -19.25 53.109375 -20.75 52.015625 C -22.25 50.921875 -23.328125 49.585938 -23.984375 48.015625 C -24.640625 46.441406 -24.96875 44.960938 -24.96875 43.578125 C -24.96875 41.171875 -23.890625 38.34375 -21.734375 35.09375 C -19.578125 31.84375 -16.617188 28.335938 -12.859375 24.578125 C -9.109375 20.816406 -4.859375 16.929688 -0.109375 12.921875 C 4.640625 8.910156 9.640625 5.003906 14.890625 1.203125 C 14.378906 1.054688 13.8125 0.910156 13.1875 0.765625 C 12.570312 0.617188 11.972656 0.472656 11.390625 0.328125 C 9.566406 -0.253906 7.628906 -1.144531 5.578125 -2.34375 C 3.535156 -3.550781 1.800781 -5.015625 0.375 -6.734375 C -1.039062 -8.453125 -1.75 -10.296875 -1.75 -12.265625 C -1.75 -15.109375 -1.113281 -17.828125 0.15625 -20.421875 C 1.4375 -23.015625 3.0625 -25.441406 5.03125 -27.703125 C 7.007812 -29.960938 9 -31.988281 11 -33.78125 C 13.007812 -35.570312 14.742188 -37.015625 16.203125 -38.109375 C 17.515625 -38.984375 18.207031 -39.929688 18.28125 -40.953125 C 18.351562 -41.828125 19.195312 -42.628906 20.8125 -43.359375 C 23.289062 -44.453125 25.820312 -45.601562 28.40625 -46.8125 C 31 -48.019531 32.914062 -48.625 34.15625 -48.625 C 35.1875 -48.625 36.046875 -48.164062 36.734375 -47.25 C 37.429688 -46.332031 37.816406 -45.378906 37.890625 -44.390625 C 37.960938 -43.410156 37.523438 -42.738281 36.578125 -42.375 C 34.523438 -41.644531 32.054688 -40.382812 29.171875 -38.59375 C 26.296875 -36.8125 23.320312 -34.710938 20.25 -32.296875 C 17.1875 -29.890625 14.320312 -27.375 11.65625 -24.75 C 9 -22.125 6.828125 -19.585938 5.140625 -17.140625 C 3.460938 -14.691406 2.625 -12.519531 2.625 -10.625 C 2.625 -9.382812 3.316406 -8.378906 4.703125 -7.609375 C 6.085938 -6.835938 7.800781 -6.210938 9.84375 -5.734375 C 11.894531 -5.265625 13.941406 -4.703125 15.984375 -4.046875 C 16.785156 -3.828125 17.53125 -3.585938 18.21875 -3.328125 C 18.914062 -3.078125 19.59375 -2.804688 20.25 -2.515625 C 25.726562 -6.390625 31.113281 -9.96875 36.40625 -13.25 C 41.695312 -16.53125 46.601562 -19.359375 51.125 -21.734375 C 55.65625 -24.109375 59.492188 -25.804688 62.640625 -26.828125 Z M 26.171875 6.015625 C 26.171875 4.847656 25.53125 4.007812 24.25 3.5 C 22.976562 2.988281 21.316406 2.550781 19.265625 2.1875 C 14.015625 6.207031 8.941406 10.316406 4.046875 14.515625 C -0.835938 18.710938 -5.195312 22.796875 -9.03125 26.765625 C -12.863281 30.742188 -15.894531 34.394531 -18.125 37.71875 C -20.351562 41.039062 -21.46875 43.832031 -21.46875 46.09375 C -21.46875 47.113281 -21.0625 48.082031 -20.25 49 C -19.445312 49.914062 -18.207031 50.265625 -16.53125 50.046875 C -13.6875 49.679688 -10.675781 48.640625 -7.5 46.921875 C -4.320312 45.203125 -1.128906 43.007812 2.078125 40.34375 C 5.296875 37.6875 8.34375 34.769531 11.21875 31.59375 C 14.101562 28.414062 16.660156 25.238281 18.890625 22.0625 C 21.117188 18.882812 22.890625 15.890625 24.203125 13.078125 C 25.515625 10.273438 26.171875 7.921875 26.171875 6.015625 Z M 26.171875 6.015625 "/></g></g></g></g></g></g></g></g></g><g mask="url(#c8c7e5c18c)"><g transform="matrix(1, 0, 0, 1, 599, 409)"><g clip-path="url(#8fa12c6532)"><g clip-path="url(#8917b2d5be)"><g transform="matrix(1, 0, 0, 1, 0, 0.000000000000056843)"><g clip-path="url(#5d8d059b59)"><g fill="#233028" fill-opacity="1"><g transform="translate(1.517184, 53.818321)"><g><path d="M 6.953125 0 L 6.953125 -40.515625 L 12.375 -40.515625 L 12.375 -14.953125 L 28.140625 -28.75 L 35.859375 -28.75 L 21.40625 -16.484375 L 36.1875 0 L 28.96875 0 L 17.296875 -13.03125 L 12.375 -8.875 L 12.375 0 Z M 6.953125 0 "/></g></g></g><g fill="#233028" fill-opacity="1"><g transform="translate(38.363607, 53.818321)"><g><path d="M 35.59375 -28.75 L 35.59375 0 L 29.953125 0 L 29.953125 -4.703125 C 29.296875 -3.828125 28.398438 -2.988281 27.265625 -2.1875 C 26.128906 -1.382812 24.820312 -0.726562 23.34375 -0.21875 C 21.875 0.289062 20.28125 0.546875 18.5625 0.546875 C 15.71875 0.546875 13.191406 -0.0859375 10.984375 -1.359375 C 8.773438 -2.640625 7.039062 -4.410156 5.78125 -6.671875 C 4.519531 -8.941406 3.890625 -11.535156 3.890625 -14.453125 C 3.890625 -17.367188 4.546875 -19.941406 5.859375 -22.171875 C 7.171875 -24.398438 8.984375 -26.148438 11.296875 -27.421875 C 13.617188 -28.703125 16.273438 -29.34375 19.265625 -29.34375 C 21.640625 -29.34375 23.75 -28.882812 25.59375 -27.96875 C 27.4375 -27.0625 28.890625 -26.003906 29.953125 -24.796875 L 29.953125 -28.75 Z M 19.875 -4.65625 C 21.882812 -4.65625 23.664062 -5.082031 25.21875 -5.9375 C 26.769531 -6.800781 27.984375 -7.960938 28.859375 -9.421875 C 29.734375 -10.878906 30.171875 -12.554688 30.171875 -14.453125 C 30.171875 -16.273438 29.734375 -17.914062 28.859375 -19.375 C 27.984375 -20.84375 26.769531 -22.003906 25.21875 -22.859375 C 23.664062 -23.710938 21.882812 -24.140625 19.875 -24.140625 C 17.863281 -24.140625 16.082031 -23.710938 14.53125 -22.859375 C 12.976562 -22.003906 11.773438 -20.84375 10.921875 -19.375 C 10.066406 -17.914062 9.640625 -16.273438 9.640625 -14.453125 C 9.640625 -12.554688 10.066406 -10.878906 10.921875 -9.421875 C 11.773438 -7.960938 12.976562 -6.800781 14.53125 -5.9375 C 16.082031 -5.082031 17.863281 -4.65625 19.875 -4.65625 Z M 19.875 -4.65625 "/></g></g></g><g fill="#233028" fill-opacity="1"><g transform="translate(78.276081, 53.818321)"><g><path d="M 23.703125 -29.234375 C 26.628906 -29.234375 29.210938 -28.601562 31.453125 -27.34375 C 33.703125 -26.082031 35.460938 -24.335938 36.734375 -22.109375 C 38.015625 -19.890625 38.65625 -17.320312 38.65625 -14.40625 C 38.65625 -11.519531 38.015625 -8.953125 36.734375 -6.703125 C 35.460938 -4.460938 33.710938 -2.703125 31.484375 -1.421875 C 29.253906 -0.140625 26.71875 0.5 23.875 0.5 C 21.457031 0.5 19.28125 0.0351562 17.34375 -0.890625 C 15.414062 -1.828125 13.921875 -2.878906 12.859375 -4.046875 L 12.859375 12.046875 L 7.171875 12.046875 L 7.171875 -28.796875 L 12.859375 -28.796875 L 12.859375 -24.421875 C 13.484375 -25.222656 14.34375 -26 15.4375 -26.75 C 16.53125 -27.5 17.789062 -28.097656 19.21875 -28.546875 C 20.644531 -29.003906 22.140625 -29.234375 23.703125 -29.234375 Z M 22.9375 -24.03125 C 20.925781 -24.03125 19.132812 -23.609375 17.5625 -22.765625 C 16 -21.929688 14.78125 -20.789062 13.90625 -19.34375 C 13.03125 -17.90625 12.59375 -16.257812 12.59375 -14.40625 C 12.59375 -12.570312 13.03125 -10.925781 13.90625 -9.46875 C 14.78125 -8.007812 16 -6.847656 17.5625 -5.984375 C 19.132812 -5.128906 20.925781 -4.703125 22.9375 -4.703125 C 24.945312 -4.703125 26.726562 -5.128906 28.28125 -5.984375 C 29.832031 -6.847656 31.046875 -8.007812 31.921875 -9.46875 C 32.796875 -10.925781 33.234375 -12.570312 33.234375 -14.40625 C 33.234375 -16.257812 32.796875 -17.90625 31.921875 -19.34375 C 31.046875 -20.789062 29.832031 -21.929688 28.28125 -22.765625 C 26.726562 -23.609375 24.945312 -24.03125 22.9375 -24.03125 Z M 22.9375 -24.03125 "/></g></g></g><g fill="#233028" fill-opacity="1"><g transform="translate(118.681309, 53.818321)"><g><path d="M 10.515625 -34.984375 C 9.234375 -34.984375 8.28125 -35.3125 7.65625 -35.96875 C 7.039062 -36.625 6.734375 -37.484375 6.734375 -38.546875 C 6.734375 -39.453125 7.039062 -40.269531 7.65625 -41 C 8.28125 -41.738281 9.234375 -42.109375 10.515625 -42.109375 C 11.796875 -42.109375 12.742188 -41.773438 13.359375 -41.109375 C 13.984375 -40.453125 14.296875 -39.597656 14.296875 -38.546875 C 14.296875 -37.628906 13.984375 -36.804688 13.359375 -36.078125 C 12.742188 -35.347656 11.796875 -34.984375 10.515625 -34.984375 Z M 13.359375 0 L 7.71875 0 L 7.71875 -28.75 L 13.359375 -28.75 Z M 13.359375 0 "/></g></g></g><g fill="#233028" fill-opacity="1"><g transform="translate(137.186205, 53.818321)"><g><path d="M 16.59375 0 L 10.953125 0 L 10.953125 -23.265625 L 3.671875 -23.265625 L 3.671875 -28.75 L 10.953125 -28.75 L 10.953125 -36.734375 L 16.59375 -36.734375 L 16.59375 -28.75 L 25.015625 -28.75 L 25.015625 -23.265625 L 16.59375 -23.265625 Z M 16.59375 0 "/></g></g></g><g fill="#233028" fill-opacity="1"><g transform="translate(163.794216, 53.818321)"><g><path d="M 35.59375 -28.75 L 35.59375 0 L 29.953125 0 L 29.953125 -4.703125 C 29.296875 -3.828125 28.398438 -2.988281 27.265625 -2.1875 C 26.128906 -1.382812 24.820312 -0.726562 23.34375 -0.21875 C 21.875 0.289062 20.28125 0.546875 18.5625 0.546875 C 15.71875 0.546875 13.191406 -0.0859375 10.984375 -1.359375 C 8.773438 -2.640625 7.039062 -4.410156 5.78125 -6.671875 C 4.519531 -8.941406 3.890625 -11.535156 3.890625 -14.453125 C 3.890625 -17.367188 4.546875 -19.941406 5.859375 -22.171875 C 7.171875 -24.398438 8.984375 -26.148438 11.296875 -27.421875 C 13.617188 -28.703125 16.273438 -29.34375 19.265625 -29.34375 C 21.640625 -29.34375 23.75 -28.882812 25.59375 -27.96875 C 27.4375 -27.0625 28.890625 -26.003906 29.953125 -24.796875 L 29.953125 -28.75 Z M 19.875 -4.65625 C 21.882812 -4.65625 23.664062 -5.082031 25.21875 -5.9375 C 26.769531 -6.800781 27.984375 -7.960938 28.859375 -9.421875 C 29.734375 -10.878906 30.171875 -12.554688 30.171875 -14.453125 C 30.171875 -16.273438 29.734375 -17.914062 28.859375 -19.375 C 27.984375 -20.84375 26.769531 -22.003906 25.21875 -22.859375 C 23.664062 -23.710938 21.882812 -24.140625 19.875 -24.140625 C 17.863281 -24.140625 16.082031 -23.710938 14.53125 -22.859375 C 12.976562 -22.003906 11.773438 -20.84375 10.921875 -19.375 C 10.066406 -17.914062 9.640625 -16.273438 9.640625 -14.453125 C 9.640625 -12.554688 10.066406 -10.878906 10.921875 -9.421875 C 11.773438 -7.960938 12.976562 -6.800781 14.53125 -5.9375 C 16.082031 -5.082031 17.863281 -4.65625 19.875 -4.65625 Z M 19.875 -4.65625 "/></g></g></g><g fill="#233028" fill-opacity="1"><g transform="translate(203.70669, 53.818321)"><g><path d="M 6.953125 0 L 6.953125 -40.515625 L 12.59375 -40.515625 L 12.59375 0 Z M 6.953125 0 "/></g></g></g><g fill="#233028" fill-opacity="1"><g transform="translate(220.952315, 53.818321)"><g><path d="M 9.75 0.609375 C 8.21875 0.609375 7.078125 0.234375 6.328125 -0.515625 C 5.578125 -1.265625 5.203125 -2.257812 5.203125 -3.5 C 5.203125 -4.5625 5.578125 -5.507812 6.328125 -6.34375 C 7.078125 -7.1875 8.21875 -7.609375 9.75 -7.609375 C 11.28125 -7.609375 12.421875 -7.234375 13.171875 -6.484375 C 13.921875 -5.734375 14.296875 -4.738281 14.296875 -3.5 C 14.296875 -2.476562 13.921875 -1.535156 13.171875 -0.671875 C 12.421875 0.179688 11.28125 0.609375 9.75 0.609375 Z M 9.75 0.609375 "/></g></g></g></g></g></g></g></g></g><g mask="url(#9acdac2659)"><g transform="matrix(1, 0, 0, 1, 708, 474)"><g clip-path="url(#5461d752fd)"><g clip-path="url(#b3ebe72ffd)"><g><g clip-path="url(#986458943f)"><g fill="#233028" fill-opacity="1"><g transform="translate(1.837182, 18.250056)"><g><path d="M 2.28125 -12.09375 L 10.875 -12.09375 L 10.875 -10.296875 L 4.140625 -10.296875 L 4.140625 -7.109375 L 9.921875 -7.109375 L 9.921875 -5.3125 L 4.140625 -5.3125 L 4.140625 -1.796875 L 10.875 -1.796875 L 10.875 0 L 2.28125 0 Z M 2.28125 -12.09375 "/></g></g></g><g fill="#233028" fill-opacity="1"><g transform="translate(14.589954, 18.250056)"><g><path d="M 2.640625 -3.6875 C 3.191406 -2.988281 3.773438 -2.445312 4.390625 -2.0625 C 5.003906 -1.6875 5.769531 -1.5 6.6875 -1.5 C 7.15625 -1.5 7.609375 -1.566406 8.046875 -1.703125 C 8.484375 -1.835938 8.84375 -2.03125 9.125 -2.28125 C 9.40625 -2.539062 9.546875 -2.867188 9.546875 -3.265625 C 9.546875 -3.835938 9.253906 -4.257812 8.671875 -4.53125 C 8.097656 -4.800781 7.289062 -5.019531 6.25 -5.1875 C 4.945312 -5.40625 3.910156 -5.789062 3.140625 -6.34375 C 2.378906 -6.90625 2 -7.726562 2 -8.8125 C 2 -9.53125 2.210938 -10.144531 2.640625 -10.65625 C 3.066406 -11.175781 3.628906 -11.570312 4.328125 -11.84375 C 5.035156 -12.125 5.8125 -12.265625 6.65625 -12.265625 C 7.71875 -12.265625 8.632812 -12.078125 9.40625 -11.703125 C 10.1875 -11.335938 10.796875 -10.816406 11.234375 -10.140625 L 9.953125 -8.8125 C 9.585938 -9.34375 9.125 -9.769531 8.5625 -10.09375 C 8 -10.425781 7.34375 -10.59375 6.59375 -10.59375 C 5.851562 -10.59375 5.222656 -10.445312 4.703125 -10.15625 C 4.191406 -9.863281 3.9375 -9.453125 3.9375 -8.921875 C 3.9375 -8.304688 4.207031 -7.863281 4.75 -7.59375 C 5.289062 -7.332031 6.007812 -7.128906 6.90625 -6.984375 C 7.5 -6.890625 8.066406 -6.757812 8.609375 -6.59375 C 9.148438 -6.4375 9.632812 -6.226562 10.0625 -5.96875 C 10.5 -5.707031 10.84375 -5.390625 11.09375 -5.015625 C 11.34375 -4.640625 11.46875 -4.179688 11.46875 -3.640625 C 11.46875 -2.867188 11.269531 -2.195312 10.875 -1.625 C 10.476562 -1.0625 9.910156 -0.617188 9.171875 -0.296875 C 8.441406 0.015625 7.570312 0.171875 6.5625 0.171875 C 5.507812 0.171875 4.550781 -0.0078125 3.6875 -0.375 C 2.820312 -0.75 2.0625 -1.347656 1.40625 -2.171875 Z M 2.640625 -3.6875 "/></g></g></g><g fill="#233028" fill-opacity="1"><g transform="translate(27.51552, 18.250056)"><g><path d="M 4.921875 0 L 4.921875 -10.296875 L 1.046875 -10.296875 L 1.046875 -12.09375 L 10.765625 -12.09375 L 10.765625 -10.296875 L 6.796875 -10.296875 L 6.796875 0 Z M 4.921875 0 "/></g></g></g><g fill="#233028" fill-opacity="1"><g transform="translate(39.335154, 18.250056)"><g><path d="M 3.078125 0.1875 C 2.585938 0.1875 2.222656 0.0703125 1.984375 -0.15625 C 1.753906 -0.394531 1.640625 -0.710938 1.640625 -1.109375 C 1.640625 -1.441406 1.753906 -1.738281 1.984375 -2 C 2.222656 -2.269531 2.585938 -2.40625 3.078125 -2.40625 C 3.554688 -2.40625 3.914062 -2.285156 4.15625 -2.046875 C 4.394531 -1.804688 4.515625 -1.492188 4.515625 -1.109375 C 4.515625 -0.785156 4.394531 -0.488281 4.15625 -0.21875 C 3.914062 0.0507812 3.554688 0.1875 3.078125 0.1875 Z M 3.078125 0.1875 "/></g></g></g><g fill="#233028" fill-opacity="1"><g transform="translate(45.486902, 18.250056)"><g/></g></g><g fill="#233028" fill-opacity="1"><g transform="translate(51.742317, 18.250056)"><g><path d="M 9.953125 -1.796875 L 9.953125 0 L 2.015625 0 L 1.453125 -1.421875 L 5.328125 -5.359375 C 5.703125 -5.742188 6.066406 -6.125 6.421875 -6.5 C 6.785156 -6.882812 7.082031 -7.265625 7.3125 -7.640625 C 7.539062 -8.023438 7.65625 -8.410156 7.65625 -8.796875 C 7.65625 -9.359375 7.472656 -9.789062 7.109375 -10.09375 C 6.753906 -10.394531 6.269531 -10.546875 5.65625 -10.546875 C 5.144531 -10.546875 4.609375 -10.363281 4.046875 -10 C 3.492188 -9.644531 3.046875 -9.0625 2.703125 -8.25 L 1.296875 -9.15625 C 1.691406 -10.144531 2.296875 -10.910156 3.109375 -11.453125 C 3.921875 -11.992188 4.84375 -12.265625 5.875 -12.265625 C 6.601562 -12.265625 7.242188 -12.128906 7.796875 -11.859375 C 8.347656 -11.585938 8.78125 -11.203125 9.09375 -10.703125 C 9.414062 -10.210938 9.578125 -9.632812 9.578125 -8.96875 C 9.578125 -8.375 9.421875 -7.796875 9.109375 -7.234375 C 8.804688 -6.671875 8.425781 -6.128906 7.96875 -5.609375 C 7.507812 -5.085938 7.035156 -4.570312 6.546875 -4.0625 L 4.296875 -1.796875 Z M 9.953125 -1.796875 "/></g></g></g><g fill="#233028" fill-opacity="1"><g transform="translate(62.784358, 18.250056)"><g><path d="M 6.03125 0.171875 C 4.96875 0.171875 4.078125 -0.09375 3.359375 -0.625 C 2.640625 -1.164062 2.09375 -1.898438 1.71875 -2.828125 C 1.351562 -3.765625 1.171875 -4.835938 1.171875 -6.046875 C 1.171875 -7.253906 1.351562 -8.320312 1.71875 -9.25 C 2.09375 -10.1875 2.640625 -10.921875 3.359375 -11.453125 C 4.078125 -11.992188 4.96875 -12.265625 6.03125 -12.265625 C 7.082031 -12.265625 7.960938 -11.992188 8.671875 -11.453125 C 9.378906 -10.921875 9.914062 -10.1875 10.28125 -9.25 C 10.644531 -8.320312 10.828125 -7.253906 10.828125 -6.046875 C 10.828125 -4.835938 10.644531 -3.765625 10.28125 -2.828125 C 9.914062 -1.898438 9.378906 -1.164062 8.671875 -0.625 C 7.960938 -0.09375 7.082031 0.171875 6.03125 0.171875 Z M 6.03125 -1.515625 C 6.96875 -1.515625 7.695312 -1.90625 8.21875 -2.6875 C 8.75 -3.476562 9.015625 -4.597656 9.015625 -6.046875 C 9.015625 -7.492188 8.75 -8.609375 8.21875 -9.390625 C 7.695312 -10.179688 6.96875 -10.578125 6.03125 -10.578125 C 5.0625 -10.578125 4.304688 -10.179688 3.765625 -9.390625 C 3.234375 -8.609375 2.96875 -7.492188 2.96875 -6.046875 C 2.96875 -4.597656 3.234375 -3.476562 3.765625 -2.6875 C 4.304688 -1.90625 5.0625 -1.515625 6.03125 -1.515625 Z M 6.03125 -1.515625 "/></g></g></g><g fill="#233028" fill-opacity="1"><g transform="translate(74.776808, 18.250056)"><g><path d="M 9.953125 -1.796875 L 9.953125 0 L 2.015625 0 L 1.453125 -1.421875 L 5.328125 -5.359375 C 5.703125 -5.742188 6.066406 -6.125 6.421875 -6.5 C 6.785156 -6.882812 7.082031 -7.265625 7.3125 -7.640625 C 7.539062 -8.023438 7.65625 -8.410156 7.65625 -8.796875 C 7.65625 -9.359375 7.472656 -9.789062 7.109375 -10.09375 C 6.753906 -10.394531 6.269531 -10.546875 5.65625 -10.546875 C 5.144531 -10.546875 4.609375 -10.363281 4.046875 -10 C 3.492188 -9.644531 3.046875 -9.0625 2.703125 -8.25 L 1.296875 -9.15625 C 1.691406 -10.144531 2.296875 -10.910156 3.109375 -11.453125 C 3.921875 -11.992188 4.84375 -12.265625 5.875 -12.265625 C 6.601562 -12.265625 7.242188 -12.128906 7.796875 -11.859375 C 8.347656 -11.585938 8.78125 -11.203125 9.09375 -10.703125 C 9.414062 -10.210938 9.578125 -9.632812 9.578125 -8.96875 C 9.578125 -8.375 9.421875 -7.796875 9.109375 -7.234375 C 8.804688 -6.671875 8.425781 -6.128906 7.96875 -5.609375 C 7.507812 -5.085938 7.035156 -4.570312 6.546875 -4.0625 L 4.296875 -1.796875 Z M 9.953125 -1.796875 "/></g></g></g><g fill="#233028" fill-opacity="1"><g transform="translate(85.818849, 18.250056)"><g><path d="M 5.203125 0.125 C 4.328125 0.125 3.546875 -0.0664062 2.859375 -0.453125 C 2.171875 -0.835938 1.601562 -1.320312 1.15625 -1.90625 L 2.171875 -3.1875 C 2.640625 -2.707031 3.117188 -2.320312 3.609375 -2.03125 C 4.097656 -1.738281 4.628906 -1.59375 5.203125 -1.59375 C 5.742188 -1.59375 6.226562 -1.695312 6.65625 -1.90625 C 7.082031 -2.113281 7.414062 -2.394531 7.65625 -2.75 C 7.894531 -3.113281 8.015625 -3.535156 8.015625 -4.015625 C 8.015625 -4.472656 7.894531 -4.878906 7.65625 -5.234375 C 7.414062 -5.585938 7.09375 -5.867188 6.6875 -6.078125 C 6.28125 -6.285156 5.832031 -6.390625 5.34375 -6.390625 C 4.695312 -6.390625 4.148438 -6.296875 3.703125 -6.109375 C 3.253906 -5.929688 2.898438 -5.785156 2.640625 -5.671875 L 1.65625 -6.96875 L 2.375 -12.09375 L 9.171875 -12.09375 L 9.171875 -10.375 L 3.8125 -10.375 L 3.421875 -7.65625 C 3.710938 -7.769531 4.0625 -7.867188 4.46875 -7.953125 C 4.875 -8.046875 5.273438 -8.09375 5.671875 -8.09375 C 6.421875 -8.09375 7.109375 -7.929688 7.734375 -7.609375 C 8.359375 -7.285156 8.859375 -6.828125 9.234375 -6.234375 C 9.617188 -5.640625 9.8125 -4.929688 9.8125 -4.109375 C 9.8125 -3.304688 9.609375 -2.582031 9.203125 -1.9375 C 8.796875 -1.300781 8.242188 -0.796875 7.546875 -0.421875 C 6.847656 -0.0546875 6.066406 0.125 5.203125 0.125 Z M 5.203125 0.125 "/></g></g></g></g></g></g></g></g></g></svg>